0
SECTION
2
HEADER
9
$INSUNITS
70
4
9
$ACADVER
1
AC1014
9
$HANDSEED
5
FFFF
0
ENDSEC
0
SECTION
2
TABLES
0
TABLE
2
VPORT
5
8
100
AcDbSymbolTable
0
ENDTAB
0
TABLE
2
LTYPE
5
5
100
AcDbSymbolTable
0
LTYPE
5
14
100
AcDbSymbolTableRecord
100
AcDbLinetypeTableRecord
2
BYBLOCK
70
0
0
LTYPE
5
15
100
AcDbSymbolTableRecord
100
AcDbLinetypeTableRecord
2
BYLAYER
70
0
0
ENDTAB
0
TABLE
2
LAYER
5
2
100
AcDbSymbolTable
70
2
0
LAYER
5
50
100
AcDbSymbolTableRecord
100
AcDbLayerTableRecord
2
0
70
0
6
CONTINUOUS
0
ENDTAB
0
TABLE
2
STYLE
5
3
100
AcDbSymbolTable
70
1
0
STYLE
5
11
100
AcDbSymbolTableRecord
100
AcDbTextStyleTableRecord
2
STANDARD
70
0
0
ENDTAB
0
TABLE
2
VIEW
5
6
100
AcDbSymbolTable
70
0
0
ENDTAB
0
TABLE
2
UCS
5
7
100
AcDbSymbolTable
70
0
0
ENDTAB
0
TABLE
2
APPID
5
9
100
AcDbSymbolTable
70
2
0
APPID
5
12
100
AcDbSymbolTableRecord
100
AcDbRegAppTableRecord
2
ACAD
70
0
0
ENDTAB
0
TABLE
2
DIMSTYLE
5
A
100
AcDbSymbolTable
70
1
0
ENDTAB
0
TABLE
2
BLOCK_RECORD
5
1
100
AcDbSymbolTable
70
1
0
BLOCK_RECORD
5
1F
100
AcDbSymbolTableRecord
100
AcDbBlockTableRecord
2
*MODEL_SPACE
0
BLOCK_RECORD
5
1B
100
AcDbSymbolTableRecord
100
AcDbBlockTableRecord
2
*PAPER_SPACE
0
ENDTAB
0
ENDSEC
0
SECTION
2
BLOCKS
0
BLOCK
5
20
100
AcDbEntity
100
AcDbBlockBegin
2
*MODEL_SPACE
0
ENDBLK
5
21
100
AcDbEntity
100
AcDbBlockEnd
0
BLOCK
5
1C
100
AcDbEntity
100
AcDbBlockBegin
2
*PAPER_SPACE
0
ENDBLK
5
1D
100
AcDbEntity
100
AcDbBlockEnd
0
ENDSEC
0
SECTION
2
ENTITIES
0
CIRCLE
5
100
100
AcDbEntity
8
0
100
AcDbCircle
10
0
20
0
30
0
40
2
210
0
220
0
230
1
0
LWPOLYLINE
5
101
100
AcDbEntity
8
0
100
AcDbPolyline
90
4
70
1
43
0.0
10
9.5250000000000021
20
9.5250000000000021
10
-9.5250000000000021
20
9.5250000000000021
10
-9.5250000000000021
20
-9.5250000000000021
10
9.5250000000000021
20
-9.5250000000000021
0
LWPOLYLINE
5
102
100
AcDbEntity
8
0
100
AcDbPolyline
90
4
70
1
43
0.0
10
28.575000000000003
20
-9.5250000000000021
10
28.575000000000003
20
9.5250000000000021
10
9.5250000000000021
20
9.5250000000000021
10
9.5250000000000021
20
-9.5250000000000021
0
CIRCLE
5
103
100
AcDbEntity
8
0
100
AcDbCircle
10
19.050000000000004
20
0
30
0
40
2
210
0
220
0
230
1
0
LWPOLYLINE
5
104
100
AcDbEntity
8
0
100
AcDbPolyline
90
4
70
1
43
0.0
10
47.625000000000014
20
-9.5250000000000021
10
47.625000000000014
20
9.5250000000000021
10
28.575000000000003
20
9.5250000000000021
10
28.575000000000003
20
-9.5250000000000021
0
CIRCLE
5
105
100
AcDbEntity
8
0
100
AcDbCircle
10
38.100000000000009
20
0
30
0
40
2
210
0
220
0
230
1
0
LWPOLYLINE
5
106
100
AcDbEntity
8
0
100
AcDbPolyline
90
4
70
1
43
0.0
10
66.675000000000011
20
-9.5250000000000021
10
66.675000000000011
20
9.5250000000000021
10
47.625000000000014
20
9.5250000000000021
10
47.625000000000014
20
-9.5250000000000021
0
CIRCLE
5
107
100
AcDbEntity
8
0
100
AcDbCircle
10
57.150000000000006
20
0
30
0
40
2
210
0
220
0
230
1
0
LWPOLYLINE
5
108
100
AcDbEntity
8
0
100
AcDbPolyline
90
4
70
1
43
0.0
10
85.725000000000023
20
-9.5250000000000021
10
85.725000000000023
20
9.5250000000000021
10
66.675000000000011
20
9.5250000000000021
10
66.675000000000011
20
-9.5250000000000021
0
CIRCLE
5
109
100
AcDbEntity
8
0
100
AcDbCircle
10
76.200000000000017
20
0
30
0
40
2
210
0
220
0
230
1
0
LWPOLYLINE
5
110
100
AcDbEntity
8
0
100
AcDbPolyline
90
4
70
1
43
0.0
10
104.77500000000003
20
-9.5250000000000021
10
104.77500000000003
20
9.5250000000000021
10
85.725000000000023
20
9.5250000000000021
10
85.725000000000023
20
-9.5250000000000021
0
CIRCLE
5
111
100
AcDbEntity
8
0
100
AcDbCircle
10
95.250000000000028
20
0
30
0
40
2
210
0
220
0
230
1
0
LWPOLYLINE
5
112
100
AcDbEntity
8
0
100
AcDbPolyline
90
4
70
1
43
0.0
10
123.82500000000002
20
-9.5250000000000021
10
123.82500000000002
20
9.5250000000000021
10
104.77500000000001
20
9.5250000000000021
10
104.77500000000001
20
-9.5250000000000021
0
CIRCLE
5
113
100
AcDbEntity
8
0
100
AcDbCircle
10
114.30000000000001
20
0
30
0
40
2
210
0
220
0
230
1
0
LWPOLYLINE
5
114
100
AcDbEntity
8
0
100
AcDbPolyline
90
4
70
1
43
0.0
10
142.875
20
-9.5250000000000021
10
142.875
20
9.5250000000000021
10
123.825
20
9.5250000000000021
10
123.825
20
-9.5250000000000021
0
CIRCLE
5
115
100
AcDbEntity
8
0
100
AcDbCircle
10
133.35000000000002
20
0
30
0
40
2
210
0
220
0
230
1
0
LWPOLYLINE
5
116
100
AcDbEntity
8
0
100
AcDbPolyline
90
4
70
1
43
0.0
10
161.92500000000001
20
-9.5250000000000021
10
161.92500000000001
20
9.5250000000000021
10
142.875
20
9.5250000000000021
10
142.875
20
-9.5250000000000021
0
CIRCLE
5
117
100
AcDbEntity
8
0
100
AcDbCircle
10
152.40000000000003
20
0
30
0
40
2
210
0
220
0
230
1
0
LWPOLYLINE
5
118
100
AcDbEntity
8
0
100
AcDbPolyline
90
4
70
1
43
0.0
10
180.97500000000002
20
-9.5250000000000021
10
180.97500000000002
20
9.5250000000000021
10
161.92500000000001
20
9.5250000000000021
10
161.92500000000001
20
-9.5250000000000021
0
CIRCLE
5
119
100
AcDbEntity
8
0
100
AcDbCircle
10
171.45000000000005
20
0
30
0
40
2
210
0
220
0
230
1
0
LWPOLYLINE
5
120
100
AcDbEntity
8
0
100
AcDbPolyline
90
4
70
1
43
0.0
10
200.02500000000003
20
-9.5250000000000021
10
200.02500000000003
20
9.5250000000000021
10
180.97500000000002
20
9.5250000000000021
10
180.97500000000002
20
-9.5250000000000021
0
CIRCLE
5
121
100
AcDbEntity
8
0
100
AcDbCircle
10
190.50000000000006
20
0
30
0
40
2
210
0
220
0
230
1
0
LWPOLYLINE
5
122
100
AcDbEntity
8
0
100
AcDbPolyline
90
4
70
1
43
0.0
10
219.07500000000002
20
-9.5250000000000021
10
219.07500000000002
20
9.5250000000000021
10
200.02500000000001
20
9.5250000000000021
10
200.02500000000001
20
-9.5250000000000021
0
CIRCLE
5
123
100
AcDbEntity
8
0
100
AcDbCircle
10
209.55000000000001
20
0
30
0
40
2
210
0
220
0
230
1
0
LINE
5
124
100
AcDbEntity
8
0
100
AcDbLine
10
9.5250000000000021
20
-9.5250000000000021
30
0
11
9.5250000000000021
21
-28.575000000000003
31
0
0
LINE
5
125
100
AcDbEntity
8
0
100
AcDbLine
10
-9.5250000000000021
20
-9.5250000000000021
30
0
11
9.5250000000000021
21
-9.5250000000000021
31
0
0
LINE
5
126
100
AcDbEntity
8
0
100
AcDbLine
10
9.5250000000000021
20
-28.575000000000003
30
0
11
-9.5250000000000021
21
-28.575000000000003
31
0
0
LINE
5
127
100
AcDbEntity
8
0
100
AcDbLine
10
-9.5250000000000021
20
-28.575000000000003
30
0
11
-9.5250000000000021
21
-9.5250000000000021
31
0
0
CIRCLE
5
128
100
AcDbEntity
8
0
100
AcDbCircle
10
0
20
-19.050000000000004
30
0
40
2
210
0
220
0
230
1
0
LWPOLYLINE
5
129
100
AcDbEntity
8
0
100
AcDbPolyline
90
4
70
1
43
0.0
10
28.575000000000003
20
-28.575000000000003
10
28.575000000000003
20
-9.5250000000000021
10
9.5250000000000021
20
-9.5250000000000021
10
9.5250000000000021
20
-28.575000000000003
0
CIRCLE
5
130
100
AcDbEntity
8
0
100
AcDbCircle
10
19.050000000000004
20
-19.050000000000004
30
0
40
2
210
0
220
0
230
1
0
LWPOLYLINE
5
131
100
AcDbEntity
8
0
100
AcDbPolyline
90
4
70
1
43
0.0
10
47.625000000000014
20
-28.575000000000003
10
47.625000000000014
20
-9.5250000000000021
10
28.575000000000003
20
-9.5250000000000021
10
28.575000000000003
20
-28.575000000000003
0
CIRCLE
5
132
100
AcDbEntity
8
0
100
AcDbCircle
10
38.100000000000009
20
-19.050000000000004
30
0
40
2
210
0
220
0
230
1
0
LWPOLYLINE
5
133
100
AcDbEntity
8
0
100
AcDbPolyline
90
4
70
1
43
0.0
10
66.675000000000011
20
-28.575000000000003
10
66.675000000000011
20
-9.5250000000000021
10
47.625000000000014
20
-9.5250000000000021
10
47.625000000000014
20
-28.575000000000003
0
CIRCLE
5
134
100
AcDbEntity
8
0
100
AcDbCircle
10
57.150000000000006
20
-19.050000000000004
30
0
40
2
210
0
220
0
230
1
0
LWPOLYLINE
5
135
100
AcDbEntity
8
0
100
AcDbPolyline
90
4
70
1
43
0.0
10
85.725000000000023
20
-28.575000000000003
10
85.725000000000023
20
-9.5250000000000021
10
66.675000000000011
20
-9.5250000000000021
10
66.675000000000011
20
-28.575000000000003
0
CIRCLE
5
136
100
AcDbEntity
8
0
100
AcDbCircle
10
76.200000000000017
20
-19.050000000000004
30
0
40
2
210
0
220
0
230
1
0
LWPOLYLINE
5
137
100
AcDbEntity
8
0
100
AcDbPolyline
90
4
70
1
43
0.0
10
104.77500000000003
20
-28.575000000000003
10
104.77500000000003
20
-9.5250000000000021
10
85.725000000000023
20
-9.5250000000000021
10
85.725000000000023
20
-28.575000000000003
0
CIRCLE
5
138
100
AcDbEntity
8
0
100
AcDbCircle
10
95.250000000000028
20
-19.050000000000004
30
0
40
2
210
0
220
0
230
1
0
LWPOLYLINE
5
139
100
AcDbEntity
8
0
100
AcDbPolyline
90
4
70
1
43
0.0
10
123.82500000000002
20
-28.575000000000003
10
123.82500000000002
20
-9.5250000000000021
10
104.77500000000001
20
-9.5250000000000021
10
104.77500000000001
20
-28.575000000000003
0
CIRCLE
5
140
100
AcDbEntity
8
0
100
AcDbCircle
10
114.30000000000001
20
-19.050000000000004
30
0
40
2
210
0
220
0
230
1
0
LWPOLYLINE
5
141
100
AcDbEntity
8
0
100
AcDbPolyline
90
4
70
1
43
0.0
10
142.875
20
-28.575000000000003
10
142.875
20
-9.5250000000000021
10
123.825
20
-9.5250000000000021
10
123.825
20
-28.575000000000003
0
CIRCLE
5
142
100
AcDbEntity
8
0
100
AcDbCircle
10
133.35000000000002
20
-19.050000000000004
30
0
40
2
210
0
220
0
230
1
0
LWPOLYLINE
5
143
100
AcDbEntity
8
0
100
AcDbPolyline
90
4
70
1
43
0.0
10
161.92500000000001
20
-28.575000000000003
10
161.92500000000001
20
-9.5250000000000021
10
142.875
20
-9.5250000000000021
10
142.875
20
-28.575000000000003
0
CIRCLE
5
144
100
AcDbEntity
8
0
100
AcDbCircle
10
152.40000000000003
20
-19.050000000000004
30
0
40
2
210
0
220
0
230
1
0
LWPOLYLINE
5
145
100
AcDbEntity
8
0
100
AcDbPolyline
90
4
70
1
43
0.0
10
180.97500000000002
20
-28.575000000000003
10
180.97500000000002
20
-9.5250000000000021
10
161.92500000000001
20
-9.5250000000000021
10
161.92500000000001
20
-28.575000000000003
0
CIRCLE
5
146
100
AcDbEntity
8
0
100
AcDbCircle
10
171.45000000000005
20
-19.050000000000004
30
0
40
2
210
0
220
0
230
1
0
LWPOLYLINE
5
147
100
AcDbEntity
8
0
100
AcDbPolyline
90
4
70
1
43
0.0
10
200.02500000000003
20
-28.575000000000003
10
200.02500000000003
20
-9.5250000000000021
10
180.97500000000002
20
-9.5250000000000021
10
180.97500000000002
20
-28.575000000000003
0
CIRCLE
5
148
100
AcDbEntity
8
0
100
AcDbCircle
10
190.50000000000006
20
-19.050000000000004
30
0
40
2
210
0
220
0
230
1
0
LINE
5
149
100
AcDbEntity
8
0
100
AcDbLine
10
219.07500000000002
20
-9.5250000000000021
30
0
11
219.07500000000002
21
-28.575000000000003
31
0
0
LINE
5
150
100
AcDbEntity
8
0
100
AcDbLine
10
200.02500000000001
20
-9.5250000000000021
30
0
11
219.07500000000002
21
-9.5250000000000021
31
0
0
LINE
5
151
100
AcDbEntity
8
0
100
AcDbLine
10
219.07500000000002
20
-28.575000000000003
30
0
11
200.02500000000001
21
-28.575000000000003
31
0
0
LINE
5
152
100
AcDbEntity
8
0
100
AcDbLine
10
200.02500000000001
20
-28.575000000000003
30
0
11
200.02500000000001
21
-9.5250000000000021
31
0
0
CIRCLE
5
153
100
AcDbEntity
8
0
100
AcDbCircle
10
209.55000000000001
20
-19.050000000000004
30
0
40
2
210
0
220
0
230
1
0
LWPOLYLINE
5
154
100
AcDbEntity
8
0
100
AcDbPolyline
90
4
70
1
43
0.0
10
9.5250000000000021
20
-47.625000000000014
10
9.5250000000000021
20
-28.575000000000003
10
-9.5250000000000021
20
-28.575000000000003
10
-9.5250000000000021
20
-47.625000000000014
0
CIRCLE
5
155
100
AcDbEntity
8
0
100
AcDbCircle
10
0
20
-38.100000000000009
30
0
40
2
210
0
220
0
230
1
0
LWPOLYLINE
5
156
100
AcDbEntity
8
0
100
AcDbPolyline
90
4
70
1
43
0.0
10
28.575000000000003
20
-47.625000000000014
10
28.575000000000003
20
-28.575000000000003
10
9.5250000000000021
20
-28.575000000000003
10
9.5250000000000021
20
-47.625000000000014
0
CIRCLE
5
157
100
AcDbEntity
8
0
100
AcDbCircle
10
19.050000000000004
20
-38.100000000000009
30
0
40
2
210
0
220
0
230
1
0
LWPOLYLINE
5
158
100
AcDbEntity
8
0
100
AcDbPolyline
90
4
70
1
43
0.0
10
47.625000000000014
20
-47.625000000000014
10
47.625000000000014
20
-28.575000000000003
10
28.575000000000003
20
-28.575000000000003
10
28.575000000000003
20
-47.625000000000014
0
CIRCLE
5
159
100
AcDbEntity
8
0
100
AcDbCircle
10
38.100000000000009
20
-38.100000000000009
30
0
40
2
210
0
220
0
230
1
0
LWPOLYLINE
5
160
100
AcDbEntity
8
0
100
AcDbPolyline
90
4
70
1
43
0.0
10
66.675000000000011
20
-47.625000000000014
10
66.675000000000011
20
-28.575000000000003
10
47.625000000000014
20
-28.575000000000003
10
47.625000000000014
20
-47.625000000000014
0
CIRCLE
5
161
100
AcDbEntity
8
0
100
AcDbCircle
10
57.150000000000006
20
-38.100000000000009
30
0
40
2
210
0
220
0
230
1
0
LWPOLYLINE
5
162
100
AcDbEntity
8
0
100
AcDbPolyline
90
4
70
1
43
0.0
10
85.725000000000023
20
-47.625000000000014
10
85.725000000000023
20
-28.575000000000003
10
66.675000000000011
20
-28.575000000000003
10
66.675000000000011
20
-47.625000000000014
0
CIRCLE
5
163
100
AcDbEntity
8
0
100
AcDbCircle
10
76.200000000000017
20
-38.100000000000009
30
0
40
2
210
0
220
0
230
1
0
LWPOLYLINE
5
164
100
AcDbEntity
8
0
100
AcDbPolyline
90
4
70
1
43
0.0
10
104.77500000000003
20
-47.625000000000014
10
104.77500000000003
20
-28.575000000000003
10
85.725000000000023
20
-28.575000000000003
10
85.725000000000023
20
-47.625000000000014
0
CIRCLE
5
165
100
AcDbEntity
8
0
100
AcDbCircle
10
95.250000000000028
20
-38.100000000000009
30
0
40
2
210
0
220
0
230
1
0
LWPOLYLINE
5
166
100
AcDbEntity
8
0
100
AcDbPolyline
90
4
70
1
43
0.0
10
123.82500000000002
20
-47.625000000000014
10
123.82500000000002
20
-28.575000000000003
10
104.77500000000001
20
-28.575000000000003
10
104.77500000000001
20
-47.625000000000014
0
CIRCLE
5
167
100
AcDbEntity
8
0
100
AcDbCircle
10
114.30000000000001
20
-38.100000000000009
30
0
40
2
210
0
220
0
230
1
0
LWPOLYLINE
5
168
100
AcDbEntity
8
0
100
AcDbPolyline
90
4
70
1
43
0.0
10
142.875
20
-47.625000000000014
10
142.875
20
-28.575000000000003
10
123.825
20
-28.575000000000003
10
123.825
20
-47.625000000000014
0
CIRCLE
5
169
100
AcDbEntity
8
0
100
AcDbCircle
10
133.35000000000002
20
-38.100000000000009
30
0
40
2
210
0
220
0
230
1
0
LWPOLYLINE
5
170
100
AcDbEntity
8
0
100
AcDbPolyline
90
4
70
1
43
0.0
10
161.92500000000001
20
-47.625000000000014
10
161.92500000000001
20
-28.575000000000003
10
142.875
20
-28.575000000000003
10
142.875
20
-47.625000000000014
0
CIRCLE
5
171
100
AcDbEntity
8
0
100
AcDbCircle
10
152.40000000000003
20
-38.100000000000009
30
0
40
2
210
0
220
0
230
1
0
LWPOLYLINE
5
172
100
AcDbEntity
8
0
100
AcDbPolyline
90
4
70
1
43
0.0
10
180.97500000000002
20
-47.625000000000014
10
180.97500000000002
20
-28.575000000000003
10
161.92500000000001
20
-28.575000000000003
10
161.92500000000001
20
-47.625000000000014
0
CIRCLE
5
173
100
AcDbEntity
8
0
100
AcDbCircle
10
171.45000000000005
20
-38.100000000000009
30
0
40
2
210
0
220
0
230
1
0
LWPOLYLINE
5
174
100
AcDbEntity
8
0
100
AcDbPolyline
90
4
70
1
43
0.0
10
200.02500000000003
20
-47.625000000000014
10
200.02500000000003
20
-28.575000000000003
10
180.97500000000002
20
-28.575000000000003
10
180.97500000000002
20
-47.625000000000014
0
CIRCLE
5
175
100
AcDbEntity
8
0
100
AcDbCircle
10
190.50000000000006
20
-38.100000000000009
30
0
40
2
210
0
220
0
230
1
0
LWPOLYLINE
5
176
100
AcDbEntity
8
0
100
AcDbPolyline
90
4
70
1
43
0.0
10
219.07500000000002
20
-47.625000000000014
10
219.07500000000002
20
-28.575000000000003
10
200.02500000000001
20
-28.575000000000003
10
200.02500000000001
20
-47.625000000000014
0
CIRCLE
5
177
100
AcDbEntity
8
0
100
AcDbCircle
10
209.55000000000001
20
-38.100000000000009
30
0
40
2
210
0
220
0
230
1
0
LINE
5
178
100
AcDbEntity
8
0
100
AcDbLine
10
9.5250000000000021
20
-47.625000000000014
30
0
11
9.5250000000000021
21
-66.675000000000011
31
0
0
LINE
5
179
100
AcDbEntity
8
0
100
AcDbLine
10
-9.5250000000000021
20
-47.625000000000014
30
0
11
9.5250000000000021
21
-47.625000000000014
31
0
0
LINE
5
180
100
AcDbEntity
8
0
100
AcDbLine
10
9.5250000000000021
20
-66.675000000000011
30
0
11
-9.5250000000000021
21
-66.675000000000011
31
0
0
LINE
5
181
100
AcDbEntity
8
0
100
AcDbLine
10
-9.5250000000000021
20
-66.675000000000011
30
0
11
-9.5250000000000021
21
-47.625000000000014
31
0
0
CIRCLE
5
182
100
AcDbEntity
8
0
100
AcDbCircle
10
0
20
-57.150000000000006
30
0
40
2
210
0
220
0
230
1
0
LWPOLYLINE
5
183
100
AcDbEntity
8
0
100
AcDbPolyline
90
4
70
1
43
0.0
10
28.575000000000003
20
-66.675000000000011
10
28.575000000000003
20
-47.625000000000014
10
9.5250000000000021
20
-47.625000000000014
10
9.5250000000000021
20
-66.675000000000011
0
CIRCLE
5
184
100
AcDbEntity
8
0
100
AcDbCircle
10
19.050000000000004
20
-57.150000000000006
30
0
40
2
210
0
220
0
230
1
0
LWPOLYLINE
5
185
100
AcDbEntity
8
0
100
AcDbPolyline
90
4
70
1
43
0.0
10
47.625000000000014
20
-66.675000000000011
10
47.625000000000014
20
-47.625000000000014
10
28.575000000000003
20
-47.625000000000014
10
28.575000000000003
20
-66.675000000000011
0
CIRCLE
5
186
100
AcDbEntity
8
0
100
AcDbCircle
10
38.100000000000009
20
-57.150000000000006
30
0
40
2
210
0
220
0
230
1
0
LWPOLYLINE
5
187
100
AcDbEntity
8
0
100
AcDbPolyline
90
4
70
1
43
0.0
10
66.675000000000011
20
-66.675000000000011
10
66.675000000000011
20
-47.625000000000014
10
47.625000000000014
20
-47.625000000000014
10
47.625000000000014
20
-66.675000000000011
0
CIRCLE
5
188
100
AcDbEntity
8
0
100
AcDbCircle
10
57.150000000000006
20
-57.150000000000006
30
0
40
2
210
0
220
0
230
1
0
LWPOLYLINE
5
189
100
AcDbEntity
8
0
100
AcDbPolyline
90
4
70
1
43
0.0
10
85.725000000000023
20
-66.675000000000011
10
85.725000000000023
20
-47.625000000000014
10
66.675000000000011
20
-47.625000000000014
10
66.675000000000011
20
-66.675000000000011
0
CIRCLE
5
190
100
AcDbEntity
8
0
100
AcDbCircle
10
76.200000000000017
20
-57.150000000000006
30
0
40
2
210
0
220
0
230
1
0
LWPOLYLINE
5
191
100
AcDbEntity
8
0
100
AcDbPolyline
90
4
70
1
43
0.0
10
104.77500000000003
20
-66.675000000000011
10
104.77500000000003
20
-47.625000000000014
10
85.725000000000023
20
-47.625000000000014
10
85.725000000000023
20
-66.675000000000011
0
CIRCLE
5
192
100
AcDbEntity
8
0
100
AcDbCircle
10
95.250000000000028
20
-57.150000000000006
30
0
40
2
210
0
220
0
230
1
0
LWPOLYLINE
5
193
100
AcDbEntity
8
0
100
AcDbPolyline
90
4
70
1
43
0.0
10
123.82500000000002
20
-66.675000000000011
10
123.82500000000002
20
-47.625000000000014
10
104.77500000000001
20
-47.625000000000014
10
104.77500000000001
20
-66.675000000000011
0
CIRCLE
5
194
100
AcDbEntity
8
0
100
AcDbCircle
10
114.30000000000001
20
-57.150000000000006
30
0
40
2
210
0
220
0
230
1
0
LINE
5
195
100
AcDbEntity
8
0
100
AcDbLine
10
142.875
20
-47.625000000000014
30
0
11
142.875
21
-66.675000000000011
31
0
0
LINE
5
196
100
AcDbEntity
8
0
100
AcDbLine
10
123.825
20
-47.625000000000014
30
0
11
142.875
21
-47.625000000000014
31
0
0
LINE
5
197
100
AcDbEntity
8
0
100
AcDbLine
10
142.875
20
-66.675000000000011
30
0
11
123.825
21
-66.675000000000011
31
0
0
LINE
5
198
100
AcDbEntity
8
0
100
AcDbLine
10
123.825
20
-66.675000000000011
30
0
11
123.825
21
-47.625000000000014
31
0
0
CIRCLE
5
199
100
AcDbEntity
8
0
100
AcDbCircle
10
133.35000000000002
20
-57.150000000000006
30
0
40
2
210
0
220
0
230
1
0
LWPOLYLINE
5
200
100
AcDbEntity
8
0
100
AcDbPolyline
90
4
70
1
43
0.0
10
161.92500000000001
20
-66.675000000000011
10
161.92500000000001
20
-47.625000000000014
10
142.875
20
-47.625000000000014
10
142.875
20
-66.675000000000011
0
CIRCLE
5
201
100
AcDbEntity
8
0
100
AcDbCircle
10
152.40000000000003
20
-57.150000000000006
30
0
40
2
210
0
220
0
230
1
0
LWPOLYLINE
5
202
100
AcDbEntity
8
0
100
AcDbPolyline
90
4
70
1
43
0.0
10
180.97500000000002
20
-66.675000000000011
10
180.97500000000002
20
-47.625000000000014
10
161.92500000000001
20
-47.625000000000014
10
161.92500000000001
20
-66.675000000000011
0
CIRCLE
5
203
100
AcDbEntity
8
0
100
AcDbCircle
10
171.45000000000005
20
-57.150000000000006
30
0
40
2
210
0
220
0
230
1
0
LWPOLYLINE
5
204
100
AcDbEntity
8
0
100
AcDbPolyline
90
4
70
1
43
0.0
10
200.02500000000003
20
-66.675000000000011
10
200.02500000000003
20
-47.625000000000014
10
180.97500000000002
20
-47.625000000000014
10
180.97500000000002
20
-66.675000000000011
0
CIRCLE
5
205
100
AcDbEntity
8
0
100
AcDbCircle
10
190.50000000000006
20
-57.150000000000006
30
0
40
2
210
0
220
0
230
1
0
LWPOLYLINE
5
206
100
AcDbEntity
8
0
100
AcDbPolyline
90
4
70
1
43
0.0
10
219.07500000000002
20
-66.675000000000011
10
219.07500000000002
20
-47.625000000000014
10
200.02500000000001
20
-47.625000000000014
10
200.02500000000001
20
-66.675000000000011
0
CIRCLE
5
207
100
AcDbEntity
8
0
100
AcDbCircle
10
209.55000000000001
20
-57.150000000000006
30
0
40
2
210
0
220
0
230
1
0
LWPOLYLINE
5
208
100
AcDbEntity
8
0
100
AcDbPolyline
90
12
70
1
43
0.0
10
-9.5250000000000021
20
-9.5250000000000021
10
-9.5250000000000021
20
9.5250000000000021
10
-28.575000000000003
20
9.5250000000000057
10
-28.57500000000001
20
-81.725000000000023
42
0.41421356237309176
10
-24.574999999999996
20
-85.725000000000023
10
234.12500000000006
20
-85.724999999999994
42
0.41421356237310025
10
238.12500000000003
20
-81.725000000000009
10
238.12500000000003
20
5.5250000000000021
42
0.41421356237309687
10
234.12500000000006
20
9.5250000000000021
10
-24.575000000000003
20
9.5250000000000021
42
0.4142135623730952
10
-28.575000000000003
20
5.5250000000000004
10
-28.575000000000003
20
-9.5250000000000021
0
CIRCLE
5
209
100
AcDbEntity
8
0
100
AcDbCircle
10
-19.050000000000004
20
0
30
0
40
2
210
0
220
0
230
1
0
LWPOLYLINE
5
210
100
AcDbEntity
8
0
100
AcDbPolyline
90
4
70
1
43
0.0
10
219.07500000000002
20
-66.675000000000011
10
200.02500000000001
20
-66.675000000000011
10
200.02500000000001
20
-85.725000000000023
10
219.07500000000002
20
-85.725000000000023
0
LWPOLYLINE
5
211
100
AcDbEntity
8
0
100
AcDbPolyline
90
4
70
1
43
0.0
10
200.02500000000003
20
-66.675000000000011
10
180.97500000000002
20
-66.675000000000011
10
180.97500000000002
20
-85.725000000000023
10
200.02500000000003
20
-85.725000000000023
0
LINE
5
212
100
AcDbEntity
8
0
100
AcDbLine
10
161.92500000000001
20
-66.675000000000011
30
0
11
180.97500000000002
21
-66.675000000000011
31
0
0
LINE
5
213
100
AcDbEntity
8
0
100
AcDbLine
10
180.97500000000002
20
-66.675000000000011
30
0
11
180.97500000000002
21
-85.725000000000023
31
0
0
LINE
5
214
100
AcDbEntity
8
0
100
AcDbLine
10
161.92500000000001
20
-85.725000000000023
30
0
11
161.92500000000001
21
-66.675000000000011
31
0
0
LINE
5
215
100
AcDbEntity
8
0
100
AcDbLine
10
180.97500000000002
20
-85.725000000000023
30
0
11
161.92500000000001
21
-85.725000000000023
31
0
0
CIRCLE
5
216
100
AcDbEntity
8
0
100
AcDbCircle
10
171.45000000000005
20
-76.200000000000017
30
0
40
2
210
0
220
0
230
1
0
CIRCLE
5
217
100
AcDbEntity
8
0
100
AcDbCircle
10
190.50000000000006
20
-76.200000000000017
30
0
40
2
210
0
220
0
230
1
0
CIRCLE
5
218
100
AcDbEntity
8
0
100
AcDbCircle
10
209.55000000000001
20
-76.200000000000017
30
0
40
2
210
0
220
0
230
1
0
LWPOLYLINE
5
219
100
AcDbEntity
8
0
100
AcDbPolyline
90
4
70
1
43
0.0
10
219.07500000000002
20
-9.5250000000000021
10
238.12500000000003
20
-9.5250000000000021
10
238.12500000000003
20
9.5250000000000021
10
219.07500000000002
20
9.5250000000000021
0
CIRCLE
5
220
100
AcDbEntity
8
0
100
AcDbCircle
10
228.60000000000002
20
0
30
0
40
2
210
0
220
0
230
1
0
LINE
5
221
100
AcDbEntity
8
0
100
AcDbLine
10
219.07500000000002
20
-85.725000000000023
30
0
11
219.07500000000002
21
-66.675000000000011
31
0
0
LINE
5
222
100
AcDbEntity
8
0
100
AcDbLine
10
219.07500000000002
20
-66.675000000000011
30
0
11
238.12500000000003
21
-66.675000000000011
31
0
0
LINE
5
223
100
AcDbEntity
8
0
100
AcDbLine
10
238.12500000000003
20
-85.725000000000023
30
0
11
219.07500000000002
21
-85.725000000000023
31
0
0
LINE
5
224
100
AcDbEntity
8
0
100
AcDbLine
10
238.12500000000003
20
-66.675000000000011
30
0
11
238.12500000000003
21
-85.725000000000023
31
0
0
CIRCLE
5
225
100
AcDbEntity
8
0
100
AcDbCircle
10
228.60000000000002
20
-76.200000000000017
30
0
40
2
210
0
220
0
230
1
0
CIRCLE
5
226
100
AcDbEntity
8
0
100
AcDbCircle
10
-19.050000000000004
20
-19.050000000000004
30
0
40
2.0000000000000009
210
0
220
0
230
1
0
CIRCLE
5
227
100
AcDbEntity
8
0
100
AcDbCircle
10
-21.431249999999999
20
-38.100000000000009
30
0
40
2
210
0
220
0
230
1
0
LINE
5
228
100
AcDbEntity
8
0
100
AcDbLine
10
-9.5250000000000021
20
-47.625000000000014
30
0
11
-33.337499999999999
21
-47.625000000000014
31
0
0
LINE
5
229
100
AcDbEntity
8
0
100
AcDbLine
10
-33.337499999999999
20
-47.625000000000014
30
0
11
-33.337499999999999
21
-28.575000000000003
31
0
0
CIRCLE
5
230
100
AcDbEntity
8
0
100
AcDbCircle
10
-21.431249999999999
20
-57.150000000000006
30
0
40
2.0000000000000018
210
0
220
0
230
1
0
LINE
5
231
100
AcDbEntity
8
0
100
AcDbLine
10
-9.5250000000000021
20
-66.675000000000011
30
0
11
-33.337499999999999
21
-66.675000000000011
31
0
0
LINE
5
232
100
AcDbEntity
8
0
100
AcDbLine
10
-33.337499999999999
20
-66.675000000000011
30
0
11
-33.337499999999999
21
-47.625000000000014
31
0
0
CIRCLE
5
233
100
AcDbEntity
8
0
100
AcDbCircle
10
228.60000000000002
20
-19.050000000000004
30
0
40
2.0000000000000036
210
0
220
0
230
1
0
CIRCLE
5
234
100
AcDbEntity
8
0
100
AcDbCircle
10
230.98125000000005
20
-38.100000000000009
30
0
40
1.9999999999999993
210
0
220
0
230
1
0
LINE
5
235
100
AcDbEntity
8
0
100
AcDbLine
10
219.07500000000002
20
-47.625000000000014
30
0
11
242.88750000000005
21
-47.625000000000014
31
0
0
CIRCLE
5
236
100
AcDbEntity
8
0
100
AcDbCircle
10
230.98125000000005
20
-57.150000000000006
30
0
40
1.9999999999999909
210
0
220
0
230
1
0
LINE
5
237
100
AcDbEntity
8
0
100
AcDbLine
10
238.12500000000003
20
-66.675000000000011
30
0
11
242.88750000000005
21
-66.675000000000011
31
0
0
LINE
5
238
100
AcDbEntity
8
0
100
AcDbLine
10
242.88750000000005
20
-66.675000000000011
30
0
11
242.88750000000005
21
-28.575000000000003
31
0
0
CIRCLE
5
239
100
AcDbEntity
8
0
100
AcDbCircle
10
142.87500000000003
20
-76.200000000000017
30
0
40
1.9999999999999969
210
0
220
0
230
1
0
LINE
5
240
100
AcDbEntity
8
0
100
AcDbLine
10
161.92500000000001
20
-85.725000000000023
30
0
11
123.82500000000002
21
-85.725000000000023
31
0
0
LINE
5
241
100
AcDbEntity
8
0
100
AcDbLine
10
123.82500000000002
20
-85.725000000000023
30
0
11
123.825
21
-66.675000000000011
31
0
0
LINE
5
242
100
AcDbEntity
8
0
100
AcDbLine
10
123.82500000000002
20
-85.725000000000023
30
0
11
85.725000000000023
21
-85.725000000000023
31
0
0
LINE
5
243
100
AcDbEntity
8
0
100
AcDbLine
10
85.725000000000023
20
-85.725000000000023
30
0
11
85.724999999999994
21
-66.675000000000011
31
0
0
CIRCLE
5
244
100
AcDbEntity
8
0
100
AcDbCircle
10
104.77500000000003
20
-76.200000000000017
30
0
40
1.9999999999999969
210
0
220
0
230
1
0
LINE
5
245
100
AcDbEntity
8
0
100
AcDbLine
10
85.725000000000023
20
-85.725000000000023
30
0
11
47.625000000000014
21
-85.725000000000023
31
0
0
LINE
5
246
100
AcDbEntity
8
0
100
AcDbLine
10
47.625000000000014
20
-85.725000000000023
30
0
11
47.624999999999993
21
-66.675000000000011
31
0
0
CIRCLE
5
247
100
AcDbEntity
8
0
100
AcDbCircle
10
66.675000000000026
20
-76.200000000000017
30
0
40
1.9999999999999969
210
0
220
0
230
1
0
CIRCLE
5
248
100
AcDbEntity
8
0
100
AcDbCircle
10
35.718750000000021
20
-76.200000000000017
30
0
40
1.9999999999999991
210
0
220
0
230
1
0
LINE
5
249
100
AcDbEntity
8
0
100
AcDbLine
10
47.625000000000014
20
-85.725000000000023
30
0
11
23.812500000000011
21
-85.725000000000037
31
0
0
LINE
5
250
100
AcDbEntity
8
0
100
AcDbLine
10
23.812500000000011
20
-85.725000000000037
30
0
11
23.812500000000011
21
-66.675000000000011
31
0
0
LINE
5
251
100
AcDbEntity
8
0
100
AcDbLine
10
23.812500000000011
20
-85.725000000000023
30
0
11
8.8817841970012523e-15
21
-85.725000000000037
31
0
0
LINE
5
252
100
AcDbEntity
8
0
100
AcDbLine
10
8.8817841970012523e-15
20
-85.725000000000037
30
0
11
8.8817841970012523e-15
21
-66.675000000000011
31
0
0
CIRCLE
5
253
100
AcDbEntity
8
0
100
AcDbCircle
10
11.906250000000021
20
-76.200000000000017
30
0
40
1.9999999999999991
210
0
220
0
230
1
0
LINE
5
254
100
AcDbEntity
8
0
100
AcDbLine
10
8.8817841970012523e-15
20
-85.725000000000023
30
0
11
-23.812499999999993
21
-85.725000000000037
31
0
0
LINE
5
255
100
AcDbEntity
8
0
100
AcDbLine
10
-23.812499999999993
20
-85.725000000000037
30
0
11
-23.812499999999993
21
-66.675000000000011
31
0
0
CIRCLE
5
256
100
AcDbEntity
8
0
100
AcDbCircle
10
-11.90624999999998
20
-76.200000000000017
30
0
40
1.9999999999999991
210
0
220
0
230
1
0
LINE
5
257
100
AcDbEntity
8
0
100
AcDbLine
10
242.88750000000005
20
-28.575000000000003
30
0
11
219.07500000000002
21
-28.575000000000003
31
0
0
LINE
5
258
100
AcDbEntity
8
0
100
AcDbLine
10
238.12500000000003
20
-9.5250000000000021
30
0
11
238.12500000000003
21
-28.575000000000003
31
0
0
LINE
5
259
100
AcDbEntity
8
0
100
AcDbLine
10
-33.337499999999999
20
-28.575000000000003
30
0
11
-9.5250000000000021
21
-28.575000000000003
31
0
0
LINE
5
260
100
AcDbEntity
8
0
100
AcDbLine
10
-28.575000000000003
20
-9.5250000000000021
30
0
11
-28.575000000000003
21
-28.575000000000003
31
0
0
LWPOLYLINE
5
261
100
AcDbEntity
8
0
100
AcDbPolyline
90
10
70
1
43
0.0
10
-29.575000014901164
20
5.5250000000000004
10
-29.575000014901164
20
-10.525000014901167
10
-29.575000014901171
20
-81.725000000000051
42
0.41421356237309137
10
-24.574999999999996
20
-86.725000014901184
10
234.12500000000006
20
-86.725000014901156
42
0.4142135623730992
10
239.12500001490119
20
-81.725000000000009
10
239.12500001490119
20
5.524999999999995
42
0.41421356237309687
10
234.12500000000006
20
10.525000014901163
10
-8.5249999850988409
20
10.525000014901163
10
-24.575000000000003
20
10.525000014901163
42
0.41421356237309515
0
LWPOLYLINE
5
262
100
AcDbEntity
8
0
100
AcDbPolyline
90
10
70
1
43
0.0
10
-34.575000000000003
20
5.5250000000000021
10
-34.575000000000003
20
-15.525000000000002
10
-34.57500000000001
20
-81.72500000000008
42
0.41421356237309215
10
-24.574999999999996
20
-91.725000000000009
10
234.12499999999997
20
-91.724999999999994
42
0.4142135623730992
10
244.12500000000006
20
-81.725000000000009
10
244.12500000000006
20
5.5249999999999657
42
0.41421356237309687
10
234.12500000000006
20
15.525000000000002
10
-3.5250000000000004
20
15.525000000000002
10
-24.575000000000003
20
15.525000000000002
42
0.41421356237309503
0
CIRCLE
5
263
100
AcDbEntity
8
0
100
AcDbCircle
10
28.575000000000003
20
-9.5250000000000021
30
0
40
1.5000000000000002
210
0
220
0
230
1
0
CIRCLE
5
264
100
AcDbEntity
8
0
100
AcDbCircle
10
180.97500000000002
20
-9.5250000000000021
30
0
40
1.4999999999999925
210
0
220
0
230
1
0
CIRCLE
5
265
100
AcDbEntity
8
0
100
AcDbCircle
10
180.97500000000002
20
-47.625000000000014
30
0
40
1.5000000000000071
210
0
220
0
230
1
0
CIRCLE
5
266
100
AcDbEntity
8
0
100
AcDbCircle
10
28.575000000000003
20
-47.625000000000014
30
0
40
1.4999999999999978
210
0
220
0
230
1
0
CIRCLE
5
267
100
AcDbEntity
8
0
100
AcDbCircle
10
104.77500000000003
20
-47.625000000000014
30
0
40
1.5000000000000062
210
0
220
0
230
1
0
ENDSEC
0
SECTION
2
OBJECTS
0
DICTIONARY
5
C
100
AcDbDictionary
3
ACAD_GROUP
350
D
3
ACAD_MLINESTYLE
350
17
0
DICTIONARY
5
D
100
AcDbDictionary
0
DICTIONARY
5
1A
330
C
100
AcDbDictionary
0
DICTIONARY
5
17
100
AcDbDictionary
0
ENDSEC
0
EOF
