0
SECTION
2
HEADER
9
$INSUNITS
70
4
9
$ACADVER
1
AC1014
9
$HANDSEED
5
FFFF
0
ENDSEC
0
SECTION
2
TABLES
0
TABLE
2
VPORT
5
8
100
AcDbSymbolTable
0
ENDTAB
0
TABLE
2
LTYPE
5
5
100
AcDbSymbolTable
0
LTYPE
5
14
100
AcDbSymbolTableRecord
100
AcDbLinetypeTableRecord
2
BYBLOCK
70
0
0
LTYPE
5
15
100
AcDbSymbolTableRecord
100
AcDbLinetypeTableRecord
2
BYLAYER
70
0
0
ENDTAB
0
TABLE
2
LAYER
5
2
100
AcDbSymbolTable
70
2
0
LAYER
5
50
100
AcDbSymbolTableRecord
100
AcDbLayerTableRecord
2
0
70
0
6
CONTINUOUS
0
ENDTAB
0
TABLE
2
STYLE
5
3
100
AcDbSymbolTable
70
1
0
STYLE
5
11
100
AcDbSymbolTableRecord
100
AcDbTextStyleTableRecord
2
STANDARD
70
0
0
ENDTAB
0
TABLE
2
VIEW
5
6
100
AcDbSymbolTable
70
0
0
ENDTAB
0
TABLE
2
UCS
5
7
100
AcDbSymbolTable
70
0
0
ENDTAB
0
TABLE
2
APPID
5
9
100
AcDbSymbolTable
70
2
0
APPID
5
12
100
AcDbSymbolTableRecord
100
AcDbRegAppTableRecord
2
ACAD
70
0
0
ENDTAB
0
TABLE
2
DIMSTYLE
5
A
100
AcDbSymbolTable
70
1
0
ENDTAB
0
TABLE
2
BLOCK_RECORD
5
1
100
AcDbSymbolTable
70
1
0
BLOCK_RECORD
5
1F
100
AcDbSymbolTableRecord
100
AcDbBlockTableRecord
2
*MODEL_SPACE
0
BLOCK_RECORD
5
1B
100
AcDbSymbolTableRecord
100
AcDbBlockTableRecord
2
*PAPER_SPACE
0
ENDTAB
0
ENDSEC
0
SECTION
2
BLOCKS
0
BLOCK
5
20
100
AcDbEntity
100
AcDbBlockBegin
2
*MODEL_SPACE
0
ENDBLK
5
21
100
AcDbEntity
100
AcDbBlockEnd
0
BLOCK
5
1C
100
AcDbEntity
100
AcDbBlockBegin
2
*PAPER_SPACE
0
ENDBLK
5
1D
100
AcDbEntity
100
AcDbBlockEnd
0
ENDSEC
0
SECTION
2
ENTITIES
0
LWPOLYLINE
5
100
100
AcDbEntity
8
0
100
AcDbPolyline
90
8
70
1
43
0.0
10
5.2062499999999723
20
69.200000000000031
10
18.606249999999974
20
69.200000000000003
42
0.4142135623731189
10
18.906249999999975
20
69.500000000000014
10
18.906249999999979
20
82.900000000000006
42
0.41421356237308854
10
18.606249999999974
20
83.200000000000017
10
5.2062499999999723
20
83.200000000000003
42
0.41421356237305496
10
4.9062499999999787
20
82.900000000000006
10
4.9062499999999964
20
69.500000000000014
42
0.41421356237308637
0
LWPOLYLINE
5
101
100
AcDbEntity
8
0
100
AcDbPolyline
90
8
70
1
43
0.0
10
-4.9062500000000284
20
69.500000000000014
10
-4.9062500000000275
20
82.899999999999991
42
0.41421356237308637
10
-5.20625000000003
20
83.200000000000017
10
-18.606250000000031
20
83.200000000000003
42
0.41421356237305601
10
-18.906250000000028
20
82.900000000000006
10
-18.906250000000011
20
69.500000000000014
42
0.41421356237308854
10
-18.606250000000031
20
69.200000000000031
10
-5.20625000000003
20
69.200000000000003
42
0.4142135623731189
0
LWPOLYLINE
5
102
100
AcDbEntity
8
0
100
AcDbPolyline
90
8
70
1
43
0.0
10
28.131250000000012
20
50.150000000000013
42
0.41421356237310802
10
28.431250000000009
20
50.450000000000017
10
28.431250000000002
20
63.850000000000016
42
0.41421356237310802
10
28.131250000000012
20
64.150000000000006
10
14.731250000000012
20
64.150000000000006
42
0.41421356237308637
10
14.431250000000004
20
63.850000000000016
10
14.431250000000011
20
50.450000000000017
42
0.41421356237309287
10
14.731250000000012
20
50.150000000000013
0
LWPOLYLINE
5
103
100
AcDbEntity
8
0
100
AcDbPolyline
90
8
70
1
43
0.0
10
-235.30000000000004
20
69.200000000000031
10
-221.90000000000003
20
69.200000000000003
42
0.41421356237313839
10
-221.59999999999999
20
69.500000000000014
10
-221.60000000000002
20
82.900000000000006
42
0.41421356237293894
10
-221.90000000000003
20
83.200000000000017
10
-235.30000000000004
20
83.200000000000017
42
0.41421356237306034
10
-235.60000000000002
20
82.900000000000006
10
-235.60000000000002
20
69.500000000000014
42
0.41421356237303436
0
LWPOLYLINE
5
104
100
AcDbEntity
8
0
100
AcDbPolyline
90
8
70
1
43
0.0
10
-223.9812500000001
20
44.799999999999997
42
0.41421356237306034
10
-224.28125000000009
20
45.100000000000016
10
-237.68125000000003
20
45.100000000000044
42
0.41421356237306034
10
-237.98125000000005
20
44.799999999999997
10
-237.98124999999999
20
31.400000000000009
42
0.41421356237307771
10
-237.68125000000003
20
31.100000000000026
10
-224.28125000000009
20
31.099999999999966
42
0.41421356237305601
10
-223.98125000000007
20
31.400000000000009
0
LWPOLYLINE
5
105
100
AcDbEntity
8
0
100
AcDbPolyline
90
8
70
1
43
0.0
10
-216.55000000000001
20
82.900000000000006
10
-216.55000000000001
20
69.500000000000014
42
0.41421356237303436
10
-216.25000000000003
20
69.200000000000031
10
-202.85000000000002
20
69.200000000000031
42
0.4142135623731818
10
-202.55000000000001
20
69.500000000000014
10
-202.55000000000001
20
82.900000000000006
42
0.41421356237306034
10
-202.84999999999999
20
83.200000000000017
10
-216.25000000000003
20
83.200000000000017
42
0.41421356237306034
0
LWPOLYLINE
5
106
100
AcDbEntity
8
0
100
AcDbPolyline
90
8
70
1
43
0.0
10
-197.5
20
82.900000000000006
10
-197.5
20
69.500000000000014
42
0.414213562373069
10
-197.19999999999999
20
69.200000000000031
10
-183.80000000000001
20
69.199999999999974
42
0.41421356237306034
10
-183.5
20
69.500000000000014
10
-183.5
20
82.900000000000006
42
0.41421356237304302
10
-183.80000000000001
20
83.200000000000017
10
-197.19999999999999
20
83.200000000000017
42
0.41421356237309503
0
LWPOLYLINE
5
107
100
AcDbEntity
8
0
100
AcDbPolyline
90
8
70
1
43
0.0
10
-237.68125000000003
20
64.150000000000034
42
0.41421356237309503
10
-237.98125000000005
20
63.850000000000016
10
-237.98124999999999
20
50.450000000000017
42
0.414213562373069
10
-237.68125000000003
20
50.150000000000034
10
-224.28125000000009
20
50.150000000000006
42
0.41421356237309503
10
-223.98125000000007
20
50.450000000000017
10
-223.9812500000001
20
63.850000000000016
42
0.41421356237305174
10
-224.28125000000009
20
64.150000000000034
0
LWPOLYLINE
5
108
100
AcDbEntity
8
0
100
AcDbPolyline
90
8
70
1
43
0.0
10
-98.075000000000045
20
69.200000000000003
42
0.41421356237309503
10
-97.775000000000034
20
69.500000000000014
10
-97.775000000000034
20
82.900000000000006
42
0.41421356237306034
10
-98.075000000000045
20
83.200000000000017
10
-111.47500000000005
20
83.200000000000003
42
0.4142135623730257
10
-111.77500000000003
20
82.900000000000006
10
-111.77500000000002
20
69.500000000000014
42
0.414213562373069
10
-111.47500000000005
20
69.200000000000031
0
LWPOLYLINE
5
109
100
AcDbEntity
8
0
100
AcDbPolyline
90
8
70
1
43
0.0
10
14.731250000000012
20
45.100000000000016
42
0.41421356237308637
10
14.431250000000004
20
44.799999999999997
10
14.431250000000006
20
31.40000000000002
42
0.41421356237309725
10
14.731250000000012
20
31.100000000000001
10
28.131250000000012
20
31.100000000000001
42
0.41421356237309503
10
28.431250000000009
20
31.400000000000009
10
28.431250000000002
20
44.799999999999983
42
0.41421356237310802
10
28.131250000000012
20
45.100000000000009
0
LWPOLYLINE
5
110
100
AcDbEntity
8
0
100
AcDbPolyline
90
8
70
1
43
0.0
10
-149.57500000000005
20
83.200000000000017
42
0.41421356237306034
10
-149.87500000000006
20
82.900000000000006
10
-149.87500000000006
20
69.500000000000014
42
0.414213562373069
10
-149.57500000000005
20
69.200000000000031
10
-136.17500000000004
20
69.200000000000017
42
0.41421356237313839
10
-135.87500000000006
20
69.500000000000014
10
-135.87500000000003
20
82.900000000000006
42
0.41421356237306034
10
-136.17500000000004
20
83.200000000000017
0
LWPOLYLINE
5
111
100
AcDbEntity
8
0
100
AcDbPolyline
90
8
70
1
43
0.0
10
-73.375000000000028
20
69.200000000000031
10
-59.975000000000037
20
69.200000000000003
42
0.41421356237311241
10
-59.675000000000047
20
69.500000000000014
10
-59.675000000000018
20
82.899999999999991
42
0.414213562373069
10
-59.975000000000037
20
83.200000000000017
10
-73.375000000000028
20
83.200000000000003
42
0.41421356237309503
10
-73.675000000000054
20
82.900000000000006
10
-73.67500000000004
20
69.500000000000014
42
0.41421356237307771
0
LWPOLYLINE
5
112
100
AcDbEntity
8
0
100
AcDbPolyline
90
8
70
1
43
0.0
10
-42.718750000000021
20
82.900000000000006
10
-42.718750000000014
20
69.500000000000014
42
0.41421356237308637
10
-42.418750000000038
20
69.200000000000031
10
-29.01875000000004
20
69.200000000000003
42
0.41421356237307339
10
-28.718750000000032
20
69.500000000000014
10
-28.718750000000025
20
82.900000000000006
42
0.41421356237306473
10
-29.01875000000004
20
83.200000000000017
10
-42.418750000000038
20
83.200000000000003
42
0.41421356237305174
0
LWPOLYLINE
5
113
100
AcDbEntity
8
0
100
AcDbPolyline
90
8
70
1
43
0.0
10
12.350000000000009
20
-7.0000000000000018
42
-0.41421356237309398
10
12.05000000000001
20
-6.7000000000000002
10
12.05000000000001
20
6.7000000000000002
42
-0.41421356237309398
10
12.350000000000009
20
7.0000000000000018
10
25.750000000000011
20
7.0000000000000027
42
-0.41421356237307771
10
26.050000000000004
20
6.7000000000000002
10
26.050000000000004
20
-6.7000000000000002
42
-0.41421356237310264
10
25.750000000000011
20
-7.0000000000000018
0
LWPOLYLINE
5
114
100
AcDbEntity
8
0
100
AcDbPolyline
90
8
70
1
43
0.0
10
6.9999999999999973
20
6.7000000000000002
42
0.41421356237309287
10
6.7000000000000037
20
7.0000000000000009
10
-6.6999999999999948
20
7.0000000000000018
42
0.41421356237309614
10
-6.9999999999999947
20
6.7000000000000002
10
-6.9999999999999947
20
-6.7000000000000002
42
0.41421356237309614
10
-6.6999999999999948
20
-7.0000000000000018
10
6.7000000000000037
20
-7.0000000000000018
42
0.41421356237309287
10
6.9999999999999982
20
-6.7000000000000002
0
CIRCLE
5
115
100
AcDbEntity
8
0
100
AcDbCircle
10
-219.07499999999999
20
47.625
30
0
40
1.5000000000000002
210
0
220
0
230
1
0
LWPOLYLINE
5
116
100
AcDbEntity
8
0
100
AcDbPolyline
90
21
70
1
43
0.0
10
-238.37500000000003
20
-8.1750000000000043
10
-238.375
20
21.719523551310388
42
0.26917573550634449
10
-242.33115079365078
20
28.535712982232443
42
-0.26917573550633578
10
-243.13749999999999
20
29.925000000000001
10
-243.13749999999999
20
65.325000000000003
42
-0.26917573550635354
10
-242.33115079365081
20
66.714287017767575
42
0.26917573550634588
10
-238.37500000000003
20
73.530476448689626
10
-238.37500000000003
20
84.375
42
-0.41421356237309176
10
-236.77500000000003
20
85.97499999999998
10
22.462500000000073
20
85.975000000000023
42
-0.41421356237309992
10
24.062500000000053
20
84.375
10
24.062500000000057
20
74.775000000000034
42
0.41421356237309492
10
31.912500000000037
20
66.92500000000004
10
31.987500000000008
20
66.925000000000011
42
-0.41421356237310075
10
33.587500000000013
20
65.325000000000017
10
33.587500000000013
20
29.924999999999997
42
-0.26917573550634993
10
32.781150793650809
20
28.535712982232447
42
0.26917573550634899
10
28.82500000000001
20
21.719523551310388
10
28.82500000000001
20
-8.1750000000000043
42
-0.41421356237309609
10
27.225000000000001
20
-9.7750000000000021
10
-236.77500000000003
20
-9.7750000000000288
42
-0.41421356237308649
0
CIRCLE
5
117
100
AcDbEntity
8
0
100
AcDbCircle
10
9.5250000000000057
20
47.625
30
0
40
1.5000000000000002
210
0
220
0
230
1
0
CIRCLE
5
118
100
AcDbEntity
8
0
100
AcDbCircle
10
-104.77500000000001
20
9.5250000000000021
30
0
40
1.5000000000000002
210
0
220
0
230
1
0
CIRCLE
5
119
100
AcDbEntity
8
0
100
AcDbCircle
10
-104.77500000000001
20
47.625
30
0
40
1.5000000000000002
210
0
220
0
230
1
0
LWPOLYLINE
5
120
100
AcDbEntity
8
0
100
AcDbPolyline
90
8
70
1
43
0.0
10
-159.10000000000005
20
6.9999999999999938
42
0.41421356237312978
10
-159.40000000000001
20
6.7000000000000002
10
-159.40000000000003
20
-6.7000000000000002
42
0.41421356237308421
10
-159.10000000000005
20
-7.0000000000000151
10
-145.70000000000005
20
-6.9999999999999973
42
0.41421356237308099
10
-145.40000000000003
20
-6.7000000000000002
10
-145.40000000000006
20
6.7000000000000002
42
0.41421356237307011
10
-145.70000000000005
20
7.0000000000000124
0
LWPOLYLINE
5
121
100
AcDbEntity
8
0
100
AcDbPolyline
90
8
70
1
43
0.0
10
-64.150000000000006
20
6.7000000000000002
10
-64.150000000000006
20
-6.7000000000000002
42
0.41421356237305929
10
-63.850000000000009
20
-6.9999999999999973
10
-50.45000000000001
20
-7.0000000000000027
42
0.414213562373069
10
-50.150000000000013
20
-6.7000000000000002
10
-50.150000000000013
20
6.7000000000000002
42
0.41421356237307122
10
-50.45000000000001
20
7.0000000000000053
10
-63.850000000000009
20
7.0000000000000036
42
0.41421356237311352
0
LWPOLYLINE
5
122
100
AcDbEntity
8
0
100
AcDbPolyline
90
8
70
1
43
0.0
10
-107.30000000000001
20
6.7000000000000002
42
0.4142135623730831
10
-107.59999999999999
20
7.0000000000000124
10
-121.00000000000001
20
7.0000000000000124
42
0.41421356237306145
10
-121.29999999999998
20
6.7000000000000002
10
-121.30000000000001
20
-6.7000000000000002
42
0.41421356237312101
10
-121.00000000000001
20
-7.0000000000000151
10
-107.59999999999999
20
-6.9999999999999973
42
0.41421356237302898
10
-107.30000000000004
20
-6.7000000000000002
0
CIRCLE
5
123
100
AcDbEntity
8
0
100
AcDbCircle
10
9.5250000000000057
20
9.5250000000000021
30
0
40
1.5000000000000002
210
0
220
0
230
1
0
LWPOLYLINE
5
124
100
AcDbEntity
8
0
100
AcDbPolyline
90
8
70
1
43
0.0
10
-25.749999999999996
20
-6.9999999999999973
10
-12.349999999999998
20
-7.0000000000000018
42
0.41421356237308526
10
-12.050000000000004
20
-6.7000000000000002
10
-12.050000000000004
20
6.7000000000000002
42
0.41421356237309287
10
-12.349999999999998
20
7.0000000000000009
10
-25.75
20
7.0000000000000018
42
0.41421356237310264
10
-26.050000000000004
20
6.7000000000000002
10
-26.050000000000004
20
-6.7000000000000002
42
0.41421356237309614
0
LWPOLYLINE
5
125
100
AcDbEntity
8
0
100
AcDbPolyline
90
8
70
1
43
0.0
10
-45.100000000000009
20
6.7000000000000002
10
-45.099999999999994
20
-6.7000000000000002
42
0.41421356237308526
10
-44.799999999999997
20
-6.9999999999999973
10
-31.399999999999999
20
-7.0000000000000009
42
0.41421356237308421
10
-31.100000000000012
20
-6.7000000000000002
10
-31.100000000000012
20
6.7000000000000002
42
0.41421356237308748
10
-31.400000000000002
20
7.0000000000000009
10
-44.799999999999997
20
7
42
0.4142135623730831
0
LWPOLYLINE
5
126
100
AcDbEntity
8
0
100
AcDbPolyline
90
8
70
1
43
0.0
10
-88.250000000000014
20
6.7000000000000002
42
0.41421356237310702
10
-88.550000000000026
20
6.9999999999999947
10
-101.95
20
7.0000000000000062
42
0.41421356237308965
10
-102.25000000000001
20
6.7000000000000002
10
-102.25000000000001
20
-6.7000000000000002
42
0.41421356237307011
10
-101.95
20
-7.0000000000000151
10
-88.550000000000026
20
-7.0000000000000062
42
0.41421356237308965
10
-88.250000000000014
20
-6.7000000000000002
0
LWPOLYLINE
5
127
100
AcDbEntity
8
0
100
AcDbPolyline
90
8
70
1
43
0.0
10
-140.05000000000001
20
7.0000000000000124
42
0.41421356237306145
10
-140.34999999999999
20
6.7000000000000002
10
-140.35000000000002
20
-6.7000000000000002
42
0.41421356237307011
10
-140.05000000000001
20
-7.0000000000000151
10
-126.65000000000001
20
-6.9999999999999973
42
0.41421356237302898
10
-126.35000000000005
20
-6.7000000000000002
10
-126.35000000000004
20
6.7000000000000002
42
0.41421356237309614
10
-126.65000000000001
20
7.0000000000000124
0
LWPOLYLINE
5
128
100
AcDbEntity
8
0
100
AcDbPolyline
90
8
70
1
43
0.0
10
-82.900000000000006
20
-7.0000000000000151
10
-69.500000000000014
20
-7.0000000000000062
42
0.41421356237309825
10
-69.200000000000017
20
-6.7000000000000002
10
-69.200000000000017
20
6.7000000000000002
42
0.41421356237309614
10
-69.500000000000014
20
7.0000000000000053
10
-82.900000000000006
20
6.9999999999999947
42
0.41421356237313078
10
-83.200000000000003
20
6.7000000000000002
10
-83.200000000000017
20
-6.7000000000000002
42
0.41421356237307011
0
CIRCLE
5
129
100
AcDbEntity
8
0
100
AcDbCircle
10
-219.07499999999999
20
9.5250000000000021
30
0
40
1.5000000000000002
210
0
220
0
230
1
0
LWPOLYLINE
5
130
100
AcDbEntity
8
0
100
AcDbPolyline
90
8
70
1
43
0.0
10
12.350000000000009
20
26.050000000000004
42
0.41421356237311024
10
12.05000000000001
20
25.75
10
12.05000000000001
20
12.350000000000005
42
0.41421356237310591
10
12.350000000000009
20
12.050000000000001
10
25.750000000000011
20
12.050000000000001
42
0.41421356237309725
10
26.050000000000004
20
12.350000000000005
10
26.050000000000004
20
25.75
42
0.41421356237310375
10
25.750000000000011
20
26.050000000000004
0
LWPOLYLINE
5
131
100
AcDbEntity
8
0
100
AcDbPolyline
90
8
70
1
43
0.0
10
-197.19999999999999
20
-6.9999999999999796
10
-183.80000000000001
20
-7.0000000000000062
42
0.41421356237308965
10
-183.5
20
-6.7000000000000002
10
-183.50000000000006
20
6.7000000000000002
42
0.41421356237305273
10
-183.80000000000001
20
7.0000000000000124
10
-197.19999999999999
20
6.999999999999984
42
0.41421356237317203
10
-197.50000000000003
20
6.7000000000000002
10
-197.5
20
-6.7000000000000002
42
0.41421356237307339
0
LWPOLYLINE
5
132
100
AcDbEntity
8
0
100
AcDbPolyline
90
8
70
1
43
0.0
10
-164.45000000000005
20
6.7000000000000002
42
0.41421356237308748
10
-164.75000000000006
20
7.0000000000000124
10
-178.15000000000003
20
7.0000000000000062
42
0.41421356237308965
10
-178.45000000000005
20
6.7000000000000002
10
-178.45000000000005
20
-6.7000000000000002
42
0.41421356237307339
10
-178.15000000000003
20
-6.9999999999999796
10
-164.75000000000006
20
-6.9999999999999707
42
0.41421356237312429
10
-164.45000000000005
20
-6.7000000000000002
0
LWPOLYLINE
5
133
100
AcDbEntity
8
0
100
AcDbPolyline
90
8
70
1
43
0.0
10
-6.9999999999999947
20
25.75
10
-6.9999999999999964
20
12.350000000000009
42
0.41421356237310047
10
-6.6999999999999948
20
12.050000000000001
10
6.7000000000000037
20
12.050000000000001
42
0.41421356237309936
10
7.0000000000000009
20
12.350000000000005
10
6.9999999999999964
20
25.75
42
0.41421356237309398
10
6.7000000000000037
20
26.050000000000004
10
-6.6999999999999948
20
26.050000000000004
42
0.41421356237310913
0
LWPOLYLINE
5
134
100
AcDbEntity
8
0
100
AcDbPolyline
90
8
70
1
43
0.0
10
-26.050000000000004
20
12.350000000000005
42
0.41421356237310153
10
-25.75
20
12.050000000000004
10
-12.349999999999998
20
12.050000000000001
42
0.41421356237309936
10
-12.050000000000002
20
12.350000000000005
10
-12.050000000000008
20
25.75
42
0.41421356237309287
10
-12.349999999999998
20
26.050000000000004
10
-25.75
20
26.050000000000004
42
0.41421356237310375
10
-26.050000000000004
20
25.75
0
LWPOLYLINE
5
135
100
AcDbEntity
8
0
100
AcDbPolyline
90
8
70
1
43
0.0
10
-221.90000000000003
20
7.0000000000000124
10
-235.30000000000004
20
6.9999999999999707
42
0.41421356237312429
10
-235.60000000000005
20
6.7000000000000002
10
-235.60000000000002
20
-6.7000000000000002
42
0.41421356237302348
10
-235.30000000000004
20
-6.9999999999999796
10
-221.90000000000003
20
-6.999999999999984
42
0.41421356237317203
10
-221.59999999999999
20
-6.7000000000000002
10
-221.60000000000002
20
6.7000000000000002
42
0.41421356237295193
0
LWPOLYLINE
5
136
100
AcDbEntity
8
0
100
AcDbPolyline
90
8
70
1
43
0.0
10
-202.55000000000001
20
-6.7000000000000002
10
-202.55000000000001
20
6.7000000000000002
42
0.41421356237300511
10
-202.84999999999999
20
7.0000000000000124
10
-216.25000000000003
20
6.9999999999999707
42
0.41421356237312429
10
-216.55000000000004
20
6.7000000000000002
10
-216.55000000000001
20
-6.7000000000000002
42
0.41421356237302348
10
-216.25000000000003
20
-6.9999999999999796
10
-202.84999999999999
20
-7.0000000000000027
42
0.41421356237319046
0
LWPOLYLINE
5
137
100
AcDbEntity
8
0
100
AcDbPolyline
90
8
70
1
43
0.0
10
-31.100000000000001
20
12.350000000000005
10
-31.100000000000016
20
25.75
42
0.41421356237309503
10
-31.400000000000002
20
26.050000000000004
10
-44.799999999999997
20
26.050000000000004
42
0.41421356237308637
10
-45.100000000000009
20
25.75
10
-45.100000000000009
20
12.350000000000005
42
0.41421356237308637
10
-44.799999999999997
20
12.050000000000004
10
-31.400000000000006
20
12.050000000000001
42
0.41421356237308421
0
LWPOLYLINE
5
138
100
AcDbEntity
8
0
100
AcDbPolyline
90
8
70
1
43
0.0
10
-50.45000000000001
20
12.050000000000001
42
0.41421356237307122
10
-50.150000000000013
20
12.350000000000005
10
-50.15000000000002
20
25.75
42
0.41421356237307339
10
-50.45000000000001
20
26.050000000000004
10
-63.850000000000009
20
26.050000000000004
42
0.41421356237311241
10
-64.150000000000006
20
25.75
10
-64.150000000000006
20
12.350000000000005
42
0.4142135623730625
10
-63.850000000000009
20
12.050000000000004
0
LWPOLYLINE
5
139
100
AcDbEntity
8
0
100
AcDbPolyline
90
8
70
1
43
0.0
10
-126.35000000000002
20
25.75
42
0.41421356237311674
10
-126.65000000000001
20
26.050000000000008
10
-140.05000000000001
20
26.050000000000001
42
0.41421356237308204
10
-140.34999999999999
20
25.75
10
-140.35000000000002
20
12.350000000000005
42
0.41421356237313839
10
-140.05000000000001
20
12.049999999999983
10
-126.65000000000001
20
12.050000000000001
42
0.41421356237310591
10
-126.35000000000005
20
12.350000000000005
0
LWPOLYLINE
5
140
100
AcDbEntity
8
0
100
AcDbPolyline
90
8
70
1
43
0.0
10
-88.550000000000026
20
26.050000000000004
10
-101.95
20
26.050000000000004
42
0.41421356237308637
10
-102.25000000000001
20
25.75
10
-102.25000000000001
20
12.350000000000005
42
0.41421356237313839
10
-101.95
20
12.049999999999983
10
-88.550000000000026
20
12.049999999999999
42
0.41421356237309076
10
-88.250000000000014
20
12.350000000000005
10
-88.250000000000014
20
25.75
42
0.41421356237308637
0
LWPOLYLINE
5
141
100
AcDbEntity
8
0
100
AcDbPolyline
90
8
70
1
43
0.0
10
-145.40000000000003
20
25.75
42
0.41421356237308637
10
-145.70000000000005
20
26.050000000000008
10
-159.10000000000002
20
26.049999999999986
42
0.41421356237312101
10
-159.40000000000001
20
25.75
10
-159.40000000000003
20
12.350000000000005
42
0.41421356237308637
10
-159.10000000000005
20
12.049999999999983
10
-145.70000000000005
20
12.050000000000008
42
0.41421356237308204
10
-145.40000000000003
20
12.350000000000005
0
LWPOLYLINE
5
142
100
AcDbEntity
8
0
100
AcDbPolyline
90
8
70
1
43
0.0
10
-164.45000000000005
20
12.350000000000005
10
-164.45000000000005
20
25.75
42
0.41421356237308204
10
-164.75000000000006
20
26.050000000000008
10
-178.15000000000003
20
26.05000000000004
42
0.41421356237305174
10
-178.45000000000005
20
25.75
10
-178.45000000000005
20
12.350000000000005
42
0.41421356237307549
10
-178.15000000000003
20
12.050000000000026
10
-164.75000000000006
20
12.050000000000034
42
0.4142135623731254
0
LWPOLYLINE
5
143
100
AcDbEntity
8
0
100
AcDbPolyline
90
8
70
1
43
0.0
10
-69.500000000000028
20
12.049999999999999
42
0.41421356237310802
10
-69.200000000000017
20
12.350000000000005
10
-69.200000000000017
20
25.75
42
0.41421356237306034
10
-69.500000000000014
20
26.050000000000004
10
-82.900000000000006
20
26.04999999999999
42
0.4142135623731254
10
-83.200000000000003
20
25.75
10
-83.200000000000003
20
12.350000000000005
42
0.41421356237312101
10
-82.900000000000006
20
12.049999999999983
0
LWPOLYLINE
5
144
100
AcDbEntity
8
0
100
AcDbPolyline
90
8
70
1
43
0.0
10
-107.59999999999999
20
26.050000000000008
10
-121.00000000000001
20
26.050000000000001
42
0.41421356237308204
10
-121.29999999999998
20
25.75
10
-121.30000000000001
20
12.350000000000005
42
0.4142135623731254
10
-121.00000000000001
20
12.049999999999983
10
-107.59999999999999
20
12.050000000000001
42
0.41421356237310591
10
-107.30000000000004
20
12.350000000000005
10
-107.30000000000001
20
25.75
42
0.41421356237306473
0
LWPOLYLINE
5
145
100
AcDbEntity
8
0
100
AcDbPolyline
90
8
70
1
43
0.0
10
-183.50000000000006
20
25.75
42
0.41421356237304735
10
-183.80000000000001
20
26.050000000000008
10
-197.19999999999999
20
26.049999999999986
42
0.41421356237317308
10
-197.50000000000003
20
25.75
10
-197.5
20
12.350000000000005
42
0.41421356237307549
10
-197.19999999999999
20
12.050000000000026
10
-183.80000000000001
20
12.049999999999999
42
0.41421356237309076
10
-183.5
20
12.350000000000005
0
LWPOLYLINE
5
146
100
AcDbEntity
8
0
100
AcDbPolyline
90
8
70
1
43
0.0
10
-221.90000000000003
20
26.050000000000008
10
-235.30000000000004
20
26.050000000000004
42
0.41421356237308637
10
-235.60000000000005
20
25.75
10
-235.60000000000002
20
12.350000000000005
42
0.41421356237302348
10
-235.30000000000004
20
12.050000000000026
10
-221.90000000000003
20
12.05000000000002
42
0.41421356237317308
10
-221.59999999999999
20
12.350000000000005
10
-221.59999999999999
20
25.75
42
0.41421356237298235
0
LWPOLYLINE
5
147
100
AcDbEntity
8
0
100
AcDbPolyline
90
8
70
1
43
0.0
10
-31.400000000000002
20
31.100000000000001
42
0.414213562373069
10
-31.100000000000001
20
31.400000000000009
10
-31.100000000000016
20
44.799999999999997
42
0.41421356237308637
10
-31.400000000000002
20
45.100000000000009
10
-44.799999999999997
20
45.100000000000009
42
0.41421356237312978
10
-45.100000000000009
20
44.799999999999997
10
-45.100000000000016
20
31.400000000000009
42
0.41421356237309503
10
-44.799999999999997
20
31.100000000000012
0
LWPOLYLINE
5
148
100
AcDbEntity
8
0
100
AcDbPolyline
90
8
70
1
43
0.0
10
-216.55000000000004
20
25.75
10
-216.55000000000001
20
12.350000000000005
42
0.41421356237302348
10
-216.25000000000003
20
12.050000000000026
10
-202.84999999999999
20
12.050000000000001
42
0.41421356237319257
10
-202.55000000000001
20
12.350000000000005
10
-202.55000000000001
20
25.75
42
0.41421356237299534
10
-202.84999999999999
20
26.050000000000008
10
-216.25000000000003
20
26.050000000000004
42
0.41421356237308637
0
LWPOLYLINE
5
149
100
AcDbEntity
8
0
100
AcDbPolyline
90
8
70
1
43
0.0
10
6.7000000000000037
20
31.100000000000001
42
0.41421356237307122
10
7.0000000000000018
20
31.400000000000009
10
7.0000000000000018
20
44.799999999999983
42
0.41421356237308204
10
6.7000000000000037
20
45.100000000000009
10
-6.6999999999999948
20
45.100000000000009
42
0.41421356237307549
10
-7.0000000000000009
20
44.799999999999997
10
-6.9999999999999973
20
31.400000000000009
42
0.41421356237309936
10
-6.6999999999999948
20
31.100000000000001
0
LWPOLYLINE
5
150
100
AcDbEntity
8
0
100
AcDbPolyline
90
8
70
1
43
0.0
10
-69.500000000000014
20
45.100000000000009
10
-82.899999999999991
20
45.099999999999994
42
0.41421356237310375
10
-83.200000000000003
20
44.799999999999997
10
-83.200000000000045
20
31.400000000000009
42
0.41421356237309076
10
-82.900000000000006
20
31.099999999999994
10
-69.500000000000028
20
31.100000000000001
42
0.41421356237309936
10
-69.200000000000017
20
31.400000000000009
10
-69.200000000000017
20
44.799999999999997
42
0.41421356237308637
0
LWPOLYLINE
5
151
100
AcDbEntity
8
0
100
AcDbPolyline
90
8
70
1
43
0.0
10
-64.150000000000006
20
31.400000000000009
42
0.41421356237306034
10
-63.850000000000009
20
31.100000000000012
10
-50.450000000000003
20
31.100000000000001
42
0.41421356237304735
10
-50.150000000000013
20
31.400000000000009
10
-50.150000000000013
20
44.799999999999997
42
0.41421356237311241
10
-50.45000000000001
20
45.100000000000009
10
-63.850000000000009
20
45.100000000000009
42
0.41421356237308637
10
-64.150000000000006
20
44.799999999999997
0
LWPOLYLINE
5
152
100
AcDbEntity
8
0
100
AcDbPolyline
90
8
70
1
43
0.0
10
-12.050000000000001
20
31.400000000000009
10
-12.050000000000008
20
44.799999999999997
42
0.41421356237309287
10
-12.349999999999998
20
45.100000000000009
10
-25.75
20
45.100000000000016
42
0.41421356237311674
10
-26.050000000000004
20
44.799999999999997
10
-26.050000000000004
20
31.400000000000009
42
0.41421356237311674
10
-25.75
20
31.100000000000012
10
-12.349999999999998
20
31.100000000000001
42
0.41421356237307122
0
LWPOLYLINE
5
153
100
AcDbEntity
8
0
100
AcDbPolyline
90
8
70
1
43
0.0
10
-164.45000000000005
20
44.799999999999997
42
0.41421356237309503
10
-164.75000000000006
20
45.100000000000016
10
-178.15000000000003
20
45.100000000000044
42
0.41421356237306034
10
-178.45000000000005
20
44.799999999999997
10
-178.45000000000005
20
31.400000000000009
42
0.41421356237307771
10
-178.15000000000003
20
31.100000000000026
10
-164.75000000000006
20
31.100000000000001
42
0.41421356237309076
10
-164.45000000000005
20
31.400000000000009
0
LWPOLYLINE
5
154
100
AcDbEntity
8
0
100
AcDbPolyline
90
8
70
1
43
0.0
10
-6.6999999999999948
20
64.150000000000006
42
0.41421356237308965
10
-7.0000000000000009
20
63.850000000000016
10
-6.9999999999999938
20
50.450000000000017
42
0.41421356237309176
10
-6.6999999999999948
20
50.150000000000013
10
6.7000000000000037
20
50.150000000000013
42
0.41421356237310802
10
7.0000000000000018
20
50.450000000000017
10
6.9999999999999973
20
63.850000000000016
42
0.41421356237309503
10
6.7000000000000037
20
64.150000000000006
0
LWPOLYLINE
5
155
100
AcDbEntity
8
0
100
AcDbPolyline
90
8
70
1
43
0.0
10
-101.95
20
31.099999999999994
10
-88.550000000000026
20
31.100000000000001
42
0.41421356237309076
10
-88.250000000000014
20
31.400000000000009
10
-88.250000000000014
20
44.799999999999997
42
0.41421356237309503
10
-88.550000000000026
20
45.100000000000009
10
-101.95
20
45.100000000000009
42
0.41421356237309503
10
-102.25000000000001
20
44.799999999999997
10
-102.25000000000001
20
31.400000000000009
42
0.41421356237309076
0
LWPOLYLINE
5
156
100
AcDbEntity
8
0
100
AcDbPolyline
90
8
70
1
43
0.0
10
-159.40000000000001
20
44.799999999999997
10
-159.40000000000003
20
31.400000000000009
42
0.41421356237308204
10
-159.10000000000005
20
31.099999999999994
10
-145.70000000000005
20
31.100000000000001
42
0.41421356237305601
10
-145.40000000000003
20
31.400000000000009
10
-145.40000000000006
20
44.799999999999997
42
0.41421356237307771
10
-145.70000000000005
20
45.100000000000016
10
-159.10000000000005
20
45.099999999999994
42
0.41421356237310375
0
LWPOLYLINE
5
157
100
AcDbEntity
8
0
100
AcDbPolyline
90
8
70
1
43
0.0
10
-26.050000000000004
20
63.850000000000009
10
-26.050000000000004
20
50.450000000000017
42
0.41421356237309503
10
-25.75
20
50.150000000000013
10
-12.349999999999998
20
50.150000000000013
42
0.41421356237310802
10
-12.050000000000001
20
50.450000000000017
10
-12.050000000000004
20
63.850000000000016
42
0.41421356237309503
10
-12.349999999999998
20
64.150000000000006
10
-25.75
20
64.150000000000006
42
0.41421356237311241
0
LWPOLYLINE
5
158
100
AcDbEntity
8
0
100
AcDbPolyline
90
8
70
1
43
0.0
10
-140.05000000000001
20
45.100000000000016
42
0.414213562373069
10
-140.34999999999999
20
44.799999999999997
10
-140.35000000000002
20
31.400000000000009
42
0.41421356237309076
10
-140.05000000000001
20
31.099999999999994
10
-126.65000000000003
20
31.100000000000009
42
0.41421356237308637
10
-126.35000000000004
20
31.400000000000009
10
-126.35000000000005
20
44.799999999999997
42
0.41421356237307771
10
-126.65000000000001
20
45.100000000000016
0
LWPOLYLINE
5
159
100
AcDbEntity
8
0
100
AcDbPolyline
90
8
70
1
43
0.0
10
-107.30000000000001
20
44.799999999999997
42
0.41421356237304302
10
-107.59999999999999
20
45.100000000000016
10
-121.00000000000001
20
45.100000000000016
42
0.414213562373069
10
-121.29999999999998
20
44.799999999999997
10
-121.29999999999998
20
31.400000000000009
42
0.4142135623731254
10
-121.00000000000001
20
31.099999999999994
10
-107.59999999999999
20
31.100000000000016
42
0.41421356237309503
10
-107.30000000000001
20
31.400000000000009
0
LWPOLYLINE
5
160
100
AcDbEntity
8
0
100
AcDbPolyline
90
8
70
1
43
0.0
10
-183.80000000000001
20
31.099999999999966
42
0.41421356237305601
10
-183.5
20
31.400000000000009
10
-183.50000000000006
20
44.799999999999997
42
0.41421356237306034
10
-183.80000000000001
20
45.100000000000016
10
-197.19999999999999
20
45.100000000000016
42
0.41421356237313839
10
-197.50000000000003
20
44.799999999999997
10
-197.5
20
31.400000000000009
42
0.41421356237307771
10
-197.19999999999999
20
31.100000000000026
0
LWPOLYLINE
5
161
100
AcDbEntity
8
0
100
AcDbPolyline
90
8
70
1
43
0.0
10
-216.55000000000004
20
44.799999999999997
10
-216.55000000000001
20
31.400000000000009
42
0.4142135623730257
10
-216.25000000000003
20
31.100000000000026
10
-202.84999999999999
20
31.100000000000012
42
0.41421356237318607
10
-202.55000000000001
20
31.400000000000009
10
-202.55000000000001
20
44.799999999999997
42
0.41421356237300833
10
-202.84999999999999
20
45.100000000000016
10
-216.25000000000003
20
45.100000000000009
42
0.41421356237309503
0
LWPOLYLINE
5
162
100
AcDbEntity
8
0
100
AcDbPolyline
90
8
70
1
43
0.0
10
-44.799999999999997
20
64.150000000000006
42
0.41421356237311241
10
-45.100000000000009
20
63.850000000000016
10
-45.100000000000009
20
50.450000000000017
42
0.41421356237308637
10
-44.799999999999997
20
50.150000000000013
10
-31.400000000000002
20
50.150000000000013
42
0.41421356237310802
10
-31.100000000000001
20
50.450000000000017
10
-31.100000000000012
20
63.850000000000016
42
0.41421356237310802
10
-31.400000000000002
20
64.150000000000006
0
LWPOLYLINE
5
163
100
AcDbEntity
8
0
100
AcDbPolyline
90
8
70
1
43
0.0
10
-69.200000000000017
20
63.850000000000016
42
0.414213562373069
10
-69.500000000000014
20
64.150000000000006
10
-82.900000000000006
20
64.150000000000006
42
0.41421356237312978
10
-83.200000000000003
20
63.850000000000016
10
-83.200000000000045
20
50.450000000000017
42
0.41421356237308637
10
-82.900000000000006
20
50.150000000000006
10
-69.500000000000014
20
50.150000000000006
42
0.41421356237310375
10
-69.200000000000017
20
50.450000000000017
0
LWPOLYLINE
5
164
100
AcDbEntity
8
0
100
AcDbPolyline
90
8
70
1
43
0.0
10
-126.35000000000004
20
50.450000000000017
10
-126.35000000000002
20
63.850000000000016
42
0.41421356237308637
10
-126.65000000000001
20
64.150000000000034
10
-140.05000000000001
20
64.15000000000002
42
0.41421356237305174
10
-140.34999999999999
20
63.850000000000016
10
-140.35000000000002
20
50.450000000000017
42
0.41421356237308637
10
-140.05000000000001
20
50.150000000000006
10
-126.65000000000001
20
50.15000000000002
42
0.41421356237311241
0
LWPOLYLINE
5
165
100
AcDbEntity
8
0
100
AcDbPolyline
90
8
70
1
43
0.0
10
-63.850000000000009
20
50.150000000000013
10
-50.45000000000001
20
50.150000000000013
42
0.41421356237312101
10
-50.150000000000013
20
50.450000000000017
10
-50.15000000000002
20
63.850000000000016
42
0.41421356237308637
10
-50.45000000000001
20
64.150000000000006
10
-63.850000000000009
20
64.150000000000006
42
0.41421356237310375
10
-64.150000000000006
20
63.850000000000016
10
-64.150000000000006
20
50.450000000000017
42
0.41421356237306034
0
LWPOLYLINE
5
166
100
AcDbEntity
8
0
100
AcDbPolyline
90
8
70
1
43
0.0
10
-88.550000000000026
20
64.150000000000006
10
-101.95
20
64.150000000000006
42
0.41421356237311241
10
-102.25000000000001
20
63.850000000000016
10
-102.25000000000001
20
50.450000000000017
42
0.41421356237308637
10
-101.95
20
50.150000000000006
10
-88.550000000000026
20
50.15000000000002
42
0.41421356237311241
10
-88.250000000000014
20
50.450000000000017
10
-88.250000000000014
20
63.850000000000016
42
0.41421356237311241
0
LWPOLYLINE
5
167
100
AcDbEntity
8
0
100
AcDbPolyline
90
8
70
1
43
0.0
10
-107.59999999999999
20
50.150000000000006
42
0.41421356237311241
10
-107.30000000000001
20
50.450000000000017
10
-107.30000000000001
20
63.850000000000016
42
0.41421356237303436
10
-107.59999999999999
20
64.150000000000034
10
-121.00000000000001
20
64.15000000000002
42
0.41421356237305174
10
-121.29999999999998
20
63.850000000000016
10
-121.30000000000001
20
50.450000000000017
42
0.41421356237311241
10
-121.00000000000001
20
50.150000000000006
0
LWPOLYLINE
5
168
100
AcDbEntity
8
0
100
AcDbPolyline
90
8
70
1
43
0.0
10
-145.70000000000005
20
64.150000000000034
10
-159.10000000000002
20
64.150000000000006
42
0.41421356237312101
10
-159.40000000000001
20
63.850000000000016
10
-159.40000000000003
20
50.450000000000017
42
0.414213562373069
10
-159.10000000000005
20
50.150000000000006
10
-145.70000000000007
20
50.150000000000013
42
0.41421356237308637
10
-145.40000000000003
20
50.450000000000017
10
-145.40000000000003
20
63.850000000000016
42
0.41421356237306034
0
LWPOLYLINE
5
169
100
AcDbEntity
8
0
100
AcDbPolyline
90
8
70
1
43
0.0
10
-164.45000000000005
20
50.450000000000017
10
-164.45000000000005
20
63.850000000000016
42
0.41421356237308637
10
-164.75000000000006
20
64.150000000000034
10
-178.15000000000003
20
64.150000000000034
42
0.41421356237309503
10
-178.45000000000005
20
63.850000000000016
10
-178.45000000000005
20
50.450000000000017
42
0.41421356237308637
10
-178.15000000000003
20
50.150000000000034
10
-164.75000000000006
20
50.150000000000041
42
0.41421356237312978
0
LWPOLYLINE
5
170
100
AcDbEntity
8
0
100
AcDbPolyline
90
8
70
1
43
0.0
10
-197.19999999999999
20
50.150000000000034
10
-183.80000000000001
20
50.150000000000006
42
0.41421356237309503
10
-183.5
20
50.450000000000017
10
-183.50000000000006
20
63.850000000000016
42
0.41421356237305174
10
-183.80000000000001
20
64.150000000000034
10
-197.19999999999999
20
64.149999999999991
42
0.41421356237316442
10
-197.50000000000003
20
63.850000000000016
10
-197.5
20
50.450000000000017
42
0.41421356237308637
0
LWPOLYLINE
5
171
100
AcDbEntity
8
0
100
AcDbPolyline
90
8
70
1
43
0.0
10
-164.44999999999999
20
82.900000000000006
42
0.41421356237307771
10
-164.75000000000006
20
83.200000000000017
10
-178.15000000000003
20
83.200000000000017
42
0.41421356237309503
10
-178.45000000000005
20
82.900000000000006
10
-178.45000000000005
20
69.500000000000014
42
0.414213562373069
10
-178.15000000000003
20
69.200000000000031
10
-164.75000000000006
20
69.200000000000003
42
0.41421356237309503
10
-164.45000000000005
20
69.500000000000014
0
LWPOLYLINE
5
172
100
AcDbEntity
8
0
100
AcDbPolyline
90
8
70
1
43
0.0
10
-216.25000000000003
20
64.149999999999991
42
0.41421356237312978
10
-216.55000000000004
20
63.850000000000016
10
-216.55000000000001
20
50.450000000000017
42
0.4142135623730257
10
-216.25000000000003
20
50.150000000000034
10
-202.84999999999999
20
50.150000000000013
42
0.41421356237319046
10
-202.55000000000001
20
50.450000000000017
10
-202.55000000000001
20
63.850000000000016
42
0.41421356237300833
10
-202.84999999999999
20
64.150000000000034
0
ENDSEC
0
SECTION
2
OBJECTS
0
DICTIONARY
5
C
100
AcDbDictionary
3
ACAD_GROUP
350
D
3
ACAD_MLINESTYLE
350
17
0
DICTIONARY
5
D
100
AcDbDictionary
0
DICTIONARY
5
1A
330
C
100
AcDbDictionary
0
DICTIONARY
5
17
100
AcDbDictionary
0
ENDSEC
0
EOF
