%TF.GenerationSoftware,KiCad,Pcbnew,(6.0.0)*%
%TF.CreationDate,2022-03-05T10:25:11+10:00*%
%TF.ProjectId,Ortho66_Optical,4f727468-6f36-4365-9f4f-70746963616c,rev?*%
%TF.SameCoordinates,Original*%
%TF.FileFunction,Soldermask,Bot*%
%TF.FilePolarity,Negative*%
%FSLAX46Y46*%
G04 Gerber Fmt 4.6, Leading zero omitted, Abs format (unit mm)*
G04 Created by KiCad (PCBNEW (6.0.0)) date 2022-03-05 10:25:11*
%MOMM*%
%LPD*%
G01*
G04 APERTURE LIST*
G04 Aperture macros list*
%AMRoundRect*
0 Rectangle with rounded corners*
0 $1 Rounding radius*
0 $2 $3 $4 $5 $6 $7 $8 $9 X,Y pos of 4 corners*
0 Add a 4 corners polygon primitive as box body*
4,1,4,$2,$3,$4,$5,$6,$7,$8,$9,$2,$3,0*
0 Add four circle primitives for the rounded corners*
1,1,$1+$1,$2,$3*
1,1,$1+$1,$4,$5*
1,1,$1+$1,$6,$7*
1,1,$1+$1,$8,$9*
0 Add four rect primitives between the rounded corners*
20,1,$1+$1,$2,$3,$4,$5,0*
20,1,$1+$1,$4,$5,$6,$7,0*
20,1,$1+$1,$6,$7,$8,$9,0*
20,1,$1+$1,$8,$9,$2,$3,0*%
G04 Aperture macros list end*
%ADD10O,5.700000X1.700000*%
%ADD11C,3.500000*%
%ADD12C,6.600000*%
%ADD13RoundRect,0.150000X-0.587500X-0.150000X0.587500X-0.150000X0.587500X0.150000X-0.587500X0.150000X0*%
%ADD14RoundRect,0.250000X0.250000X0.750000X-0.250000X0.750000X-0.250000X-0.750000X0.250000X-0.750000X0*%
%ADD15R,1.800000X1.100000*%
%ADD16R,0.900000X1.200000*%
%ADD17RoundRect,0.150000X-0.850000X-0.150000X0.850000X-0.150000X0.850000X0.150000X-0.850000X0.150000X0*%
%ADD18RoundRect,0.044000X0.456000X0.056000X-0.456000X0.056000X-0.456000X-0.056000X0.456000X-0.056000X0*%
%ADD19RoundRect,0.044000X0.056000X0.456000X-0.056000X0.456000X-0.056000X-0.456000X0.056000X-0.456000X0*%
%ADD20R,3.400000X3.400000*%
%ADD21RoundRect,0.150000X0.587500X0.150000X-0.587500X0.150000X-0.587500X-0.150000X0.587500X-0.150000X0*%
%ADD22O,1.000000X2.100000*%
%ADD23O,1.000000X1.600000*%
%ADD24C,0.700000*%
%ADD25R,0.600000X1.450000*%
%ADD26R,0.300000X1.450000*%
%ADD27RoundRect,0.150000X0.150000X-0.512500X0.150000X0.512500X-0.150000X0.512500X-0.150000X-0.512500X0*%
%ADD28RoundRect,0.250000X-1.450000X0.312500X-1.450000X-0.312500X1.450000X-0.312500X1.450000X0.312500X0*%
%ADD29RoundRect,0.150000X0.150000X-0.587500X0.150000X0.587500X-0.150000X0.587500X-0.150000X-0.587500X0*%
%ADD30RoundRect,0.125000X0.125000X-0.550000X0.125000X0.550000X-0.125000X0.550000X-0.125000X-0.550000X0*%
%ADD31RoundRect,0.125000X0.550000X-0.125000X0.550000X0.125000X-0.550000X0.125000X-0.550000X-0.125000X0*%
%ADD32RoundRect,0.250000X-0.250000X-0.750000X0.250000X-0.750000X0.250000X0.750000X-0.250000X0.750000X0*%
G04 APERTURE END LIST*
D10*
%TO.C,SW37*%
X252400000Y-145100000D03*
X252400000Y-131100000D03*
D11*
X252400000Y-138100000D03*
%TD*%
D10*
%TO.C,SW50*%
X233350000Y-150150000D03*
D11*
X233350000Y-157150000D03*
D10*
X233350000Y-164150000D03*
%TD*%
D11*
%TO.C,SW14*%
X347650000Y-100000000D03*
D10*
X347650000Y-93000000D03*
X347650000Y-107000000D03*
%TD*%
%TO.C,SW8*%
X233350000Y-93000000D03*
D11*
X233350000Y-100000000D03*
D10*
X233350000Y-107000000D03*
%TD*%
%TO.C,SW21*%
X214300000Y-126050000D03*
X214300000Y-112050000D03*
D11*
X214300000Y-119050000D03*
%TD*%
D12*
%TO.C,H8*%
X223825000Y-147625000D03*
%TD*%
D11*
%TO.C,SW44*%
X119050000Y-157150000D03*
D10*
X119050000Y-150150000D03*
X119050000Y-164150000D03*
%TD*%
D12*
%TO.C,H5*%
X338125000Y-109525000D03*
%TD*%
D10*
%TO.C,SW6*%
X195250000Y-93000000D03*
D11*
X195250000Y-100000000D03*
D10*
X195250000Y-107000000D03*
%TD*%
D12*
%TO.C,H10*%
X338125000Y-147625000D03*
%TD*%
D11*
%TO.C,SW34*%
X195250000Y-138100000D03*
D10*
X195250000Y-131100000D03*
X195250000Y-145100000D03*
%TD*%
D11*
%TO.C,SW7*%
X214300000Y-100000000D03*
D10*
X214300000Y-93000000D03*
X214300000Y-107000000D03*
%TD*%
D11*
%TO.C,SW54*%
X309550000Y-157150000D03*
D10*
X309550000Y-150150000D03*
X309550000Y-164150000D03*
%TD*%
%TO.C,SW56*%
X350031250Y-164150000D03*
X350031250Y-150150000D03*
D11*
X350031250Y-157150000D03*
%TD*%
%TO.C,SW13*%
X328600000Y-100000000D03*
D10*
X328600000Y-107000000D03*
X328600000Y-93000000D03*
%TD*%
D11*
%TO.C,SW27*%
X328600000Y-119050000D03*
D10*
X328600000Y-126050000D03*
X328600000Y-112050000D03*
%TD*%
D11*
%TO.C,SW47*%
X176200000Y-157150000D03*
D10*
X176200000Y-150150000D03*
X176200000Y-164150000D03*
%TD*%
%TO.C,SW53*%
X290500000Y-164150000D03*
X290500000Y-150150000D03*
D11*
X290500000Y-157150000D03*
%TD*%
D10*
%TO.C,SW42*%
X350031250Y-145100000D03*
D11*
X350031250Y-138100000D03*
D10*
X350031250Y-131100000D03*
%TD*%
%TO.C,SW35*%
X214300000Y-145100000D03*
D11*
X214300000Y-138100000D03*
D10*
X214300000Y-131100000D03*
%TD*%
D12*
%TO.C,H6*%
X109525000Y-147625000D03*
%TD*%
D11*
%TO.C,SW65*%
X328600000Y-176200000D03*
D10*
X328600000Y-183200000D03*
X328600000Y-169200000D03*
%TD*%
D11*
%TO.C,SW39*%
X290500000Y-138100000D03*
D10*
X290500000Y-131100000D03*
X290500000Y-145100000D03*
%TD*%
D11*
%TO.C,SW43*%
X97618750Y-157150000D03*
D10*
X97618750Y-150150000D03*
X97618750Y-164150000D03*
%TD*%
%TO.C,SW23*%
X252400000Y-112050000D03*
X252400000Y-126050000D03*
D11*
X252400000Y-119050000D03*
%TD*%
%TO.C,SW62*%
X261925000Y-176200000D03*
D10*
X261925000Y-169200000D03*
X261925000Y-183200000D03*
%TD*%
%TO.C,SW5*%
X176200000Y-93000000D03*
X176200000Y-107000000D03*
D11*
X176200000Y-100000000D03*
%TD*%
%TO.C,SW2*%
X119050000Y-100000000D03*
D10*
X119050000Y-107000000D03*
X119050000Y-93000000D03*
%TD*%
%TO.C,SW61*%
X223825000Y-169200000D03*
X223825000Y-183200000D03*
D11*
X223825000Y-176200000D03*
%TD*%
%TO.C,SW51*%
X252400000Y-157150000D03*
D10*
X252400000Y-164150000D03*
X252400000Y-150150000D03*
%TD*%
%TO.C,SW26*%
X309550000Y-126050000D03*
X309550000Y-112050000D03*
D11*
X309550000Y-119050000D03*
%TD*%
%TO.C,SW25*%
X290500000Y-119050000D03*
D10*
X290500000Y-126050000D03*
X290500000Y-112050000D03*
%TD*%
D11*
%TO.C,SW63*%
X290500000Y-176200000D03*
D10*
X290500000Y-183200000D03*
X290500000Y-169200000D03*
%TD*%
%TO.C,SW16*%
X119050000Y-112050000D03*
D11*
X119050000Y-119050000D03*
D10*
X119050000Y-126050000D03*
%TD*%
%TO.C,SW30*%
X119050000Y-131100000D03*
X119050000Y-145100000D03*
D11*
X119050000Y-138100000D03*
%TD*%
D10*
%TO.C,SW46*%
X157150000Y-150150000D03*
D11*
X157150000Y-157150000D03*
D10*
X157150000Y-164150000D03*
%TD*%
%TO.C,SW22*%
X233350000Y-126050000D03*
X233350000Y-112050000D03*
D11*
X233350000Y-119050000D03*
%TD*%
D12*
%TO.C,H9*%
X280975000Y-147625000D03*
%TD*%
D11*
%TO.C,SW41*%
X328600000Y-138100000D03*
D10*
X328600000Y-145100000D03*
X328600000Y-131100000D03*
%TD*%
D12*
%TO.C,H3*%
X223825000Y-109525000D03*
%TD*%
D10*
%TO.C,SW15*%
X100000000Y-126050000D03*
D11*
X100000000Y-119050000D03*
D10*
X100000000Y-112050000D03*
%TD*%
%TO.C,SW20*%
X195250000Y-112050000D03*
X195250000Y-126050000D03*
D11*
X195250000Y-119050000D03*
%TD*%
D10*
%TO.C,SW24*%
X271450000Y-112050000D03*
X271450000Y-126050000D03*
D11*
X271450000Y-119050000D03*
%TD*%
D10*
%TO.C,SW19*%
X176200000Y-126050000D03*
X176200000Y-112050000D03*
D11*
X176200000Y-119050000D03*
%TD*%
D10*
%TO.C,SW60*%
X185725000Y-169200000D03*
X185725000Y-183200000D03*
D11*
X185725000Y-176200000D03*
%TD*%
D12*
%TO.C,H7*%
X166675000Y-147625000D03*
%TD*%
D10*
%TO.C,SW49*%
X214300000Y-164150000D03*
X214300000Y-150150000D03*
D11*
X214300000Y-157150000D03*
%TD*%
D10*
%TO.C,SW59*%
X154768750Y-183200000D03*
X154768750Y-169200000D03*
D11*
X154768750Y-176200000D03*
%TD*%
%TO.C,SW66*%
X347650000Y-176200000D03*
D10*
X347650000Y-183200000D03*
X347650000Y-169200000D03*
%TD*%
%TO.C,SW55*%
X328600000Y-150150000D03*
D11*
X328600000Y-157150000D03*
D10*
X328600000Y-164150000D03*
%TD*%
%TO.C,SW28*%
X347650000Y-126050000D03*
D11*
X347650000Y-119050000D03*
D10*
X347650000Y-112050000D03*
%TD*%
D12*
%TO.C,H1*%
X109525000Y-109525000D03*
%TD*%
D10*
%TO.C,SW1*%
X100000000Y-107000000D03*
D11*
X100000000Y-100000000D03*
D10*
X100000000Y-93000000D03*
%TD*%
%TO.C,SW17*%
X138100000Y-126050000D03*
X138100000Y-112050000D03*
D11*
X138100000Y-119050000D03*
%TD*%
%TO.C,SW38*%
X271450000Y-138100000D03*
D10*
X271450000Y-131100000D03*
X271450000Y-145100000D03*
%TD*%
%TO.C,SW9*%
X252400000Y-93000000D03*
D11*
X252400000Y-100000000D03*
D10*
X252400000Y-107000000D03*
%TD*%
%TO.C,SW4*%
X157150000Y-93000000D03*
D11*
X157150000Y-100000000D03*
D10*
X157150000Y-107000000D03*
%TD*%
D11*
%TO.C,SW52*%
X271450000Y-157150000D03*
D10*
X271450000Y-150150000D03*
X271450000Y-164150000D03*
%TD*%
%TO.C,SW18*%
X157150000Y-112050000D03*
D11*
X157150000Y-119050000D03*
D10*
X157150000Y-126050000D03*
%TD*%
D11*
%TO.C,SW11*%
X290500000Y-100000000D03*
D10*
X290500000Y-93000000D03*
X290500000Y-107000000D03*
%TD*%
D11*
%TO.C,SW12*%
X309550000Y-100000000D03*
D10*
X309550000Y-107000000D03*
X309550000Y-93000000D03*
%TD*%
D12*
%TO.C,H4*%
X280975000Y-109525000D03*
%TD*%
D10*
%TO.C,SW33*%
X176200000Y-131100000D03*
X176200000Y-145100000D03*
D11*
X176200000Y-138100000D03*
%TD*%
%TO.C,SW36*%
X233350000Y-138100000D03*
D10*
X233350000Y-145100000D03*
X233350000Y-131100000D03*
%TD*%
%TO.C,SW48*%
X195250000Y-150150000D03*
D11*
X195250000Y-157150000D03*
D10*
X195250000Y-164150000D03*
%TD*%
D12*
%TO.C,H2*%
X166675000Y-109525000D03*
%TD*%
D11*
%TO.C,SW57*%
X107143750Y-176200000D03*
D10*
X107143750Y-183200000D03*
X107143750Y-169200000D03*
%TD*%
D11*
%TO.C,SW45*%
X138100000Y-157150000D03*
D10*
X138100000Y-164150000D03*
X138100000Y-150150000D03*
%TD*%
%TO.C,SW10*%
X271450000Y-107000000D03*
D11*
X271450000Y-100000000D03*
D10*
X271450000Y-93000000D03*
%TD*%
%TO.C,SW40*%
X309550000Y-131100000D03*
D11*
X309550000Y-138100000D03*
D10*
X309550000Y-145100000D03*
%TD*%
%TO.C,SW64*%
X309550000Y-183200000D03*
D11*
X309550000Y-176200000D03*
D10*
X309550000Y-169200000D03*
%TD*%
%TO.C,SW32*%
X157150000Y-131100000D03*
D11*
X157150000Y-138100000D03*
D10*
X157150000Y-145100000D03*
%TD*%
%TO.C,SW3*%
X138100000Y-107000000D03*
D11*
X138100000Y-100000000D03*
D10*
X138100000Y-93000000D03*
%TD*%
%TO.C,SW58*%
X130956250Y-169200000D03*
D11*
X130956250Y-176200000D03*
D10*
X130956250Y-183200000D03*
%TD*%
%TO.C,SW31*%
X138100000Y-131100000D03*
D11*
X138100000Y-138100000D03*
D10*
X138100000Y-145100000D03*
%TD*%
%TO.C,SW29*%
X97618750Y-145100000D03*
X97618750Y-131100000D03*
D11*
X97618750Y-138100000D03*
%TD*%
D13*
%TO.C,Q6*%
X188312500Y-106450000D03*
X188312500Y-104550000D03*
X190187500Y-105500000D03*
%TD*%
D14*
%TO.C,Row5.6*%
X190380000Y-176110000D03*
%TD*%
D13*
%TO.C,Q11*%
X281562500Y-100950000D03*
X281562500Y-99050000D03*
X283437500Y-100000000D03*
%TD*%
D14*
%TO.C,Col6*%
X184110000Y-101590000D03*
%TD*%
D13*
%TO.C,Q5*%
X167262500Y-100950000D03*
X167262500Y-99050000D03*
X169137500Y-100000000D03*
%TD*%
D15*
%TO.C,RESET1*%
X245975000Y-149475000D03*
X239775000Y-149475000D03*
X245975000Y-145775000D03*
X239775000Y-145775000D03*
%TD*%
D13*
%TO.C,Q10*%
X263512500Y-106450000D03*
X263512500Y-104550000D03*
X265387500Y-105500000D03*
%TD*%
D14*
%TO.C,Row5.8*%
X228960000Y-176700000D03*
%TD*%
D13*
%TO.C,Q14*%
X338712500Y-100950000D03*
X338712500Y-99050000D03*
X340587500Y-100000000D03*
%TD*%
%TO.C,Q3*%
X131162500Y-106450000D03*
X131162500Y-104550000D03*
X133037500Y-105500000D03*
%TD*%
D16*
%TO.C,D6*%
X226760000Y-102960000D03*
X230060000Y-102960000D03*
%TD*%
D17*
%TO.C,U5*%
X258425000Y-114430000D03*
X258425000Y-113160000D03*
X258425000Y-111890000D03*
X258425000Y-110620000D03*
X265425000Y-110620000D03*
X265425000Y-111890000D03*
X265425000Y-113160000D03*
X265425000Y-114430000D03*
%TD*%
D18*
%TO.C,U2*%
X283525000Y-126775000D03*
X283525000Y-127175000D03*
X283525000Y-127575000D03*
X283525000Y-127975000D03*
X283525000Y-128375000D03*
X283525000Y-128775000D03*
X283525000Y-129175000D03*
X283525000Y-129575000D03*
X283525000Y-129975000D03*
X283525000Y-130375000D03*
D19*
X282775000Y-131125000D03*
X282375000Y-131125000D03*
X281975000Y-131125000D03*
X281575000Y-131125000D03*
X281175000Y-131125000D03*
X280775000Y-131125000D03*
X280375000Y-131125000D03*
X279975000Y-131125000D03*
X279575000Y-131125000D03*
X279175000Y-131125000D03*
D18*
X278425000Y-130375000D03*
X278425000Y-129975000D03*
X278425000Y-129575000D03*
X278425000Y-129175000D03*
X278425000Y-128775000D03*
X278425000Y-128375000D03*
X278425000Y-127975000D03*
X278425000Y-127575000D03*
X278425000Y-127175000D03*
X278425000Y-126775000D03*
D19*
X279175000Y-126025000D03*
X279575000Y-126025000D03*
X279975000Y-126025000D03*
X280375000Y-126025000D03*
X280775000Y-126025000D03*
X281175000Y-126025000D03*
X281575000Y-126025000D03*
X281975000Y-126025000D03*
X282375000Y-126025000D03*
X282775000Y-126025000D03*
D20*
X280975000Y-128575000D03*
%TD*%
D13*
%TO.C,Q12*%
X302612500Y-106450000D03*
X302612500Y-104550000D03*
X304487500Y-105500000D03*
%TD*%
D14*
%TO.C,Row5.3*%
X136470000Y-176320000D03*
%TD*%
D16*
%TO.C,D4*%
X132640000Y-101410000D03*
X129340000Y-101410000D03*
%TD*%
D13*
%TO.C,Q7*%
X207362500Y-106450000D03*
X207362500Y-104550000D03*
X209237500Y-105500000D03*
%TD*%
D14*
%TO.C,GND0*%
X282670000Y-116850000D03*
%TD*%
%TO.C,5V0*%
X279680000Y-116860000D03*
%TD*%
D13*
%TO.C,Q9*%
X242272500Y-116500000D03*
X242272500Y-114600000D03*
X244147500Y-115550000D03*
%TD*%
D21*
%TO.C,Q15*%
X244437500Y-156200000D03*
X244437500Y-158100000D03*
X242562500Y-157150000D03*
%TD*%
D16*
%TO.C,D2*%
X241350000Y-104430000D03*
X244650000Y-104430000D03*
%TD*%
D13*
%TO.C,Q1*%
X93062500Y-106450000D03*
X93062500Y-104550000D03*
X94937500Y-105500000D03*
%TD*%
D22*
%TO.C,J1*%
X247195000Y-91730000D03*
D23*
X247195000Y-87550000D03*
X238555000Y-87550000D03*
D24*
X239985000Y-91200000D03*
D25*
X239625000Y-92645000D03*
X240425000Y-92645000D03*
D26*
X241625000Y-92655000D03*
X242625000Y-92645000D03*
X243125000Y-92645000D03*
X244125000Y-92645000D03*
D24*
X245765000Y-91200000D03*
D25*
X246125000Y-92645000D03*
X245325000Y-92645000D03*
D26*
X244625000Y-92645000D03*
X243625000Y-92645000D03*
X242125000Y-92645000D03*
X241125000Y-92645000D03*
D22*
X238555000Y-91730000D03*
%TD*%
D14*
%TO.C,Col3*%
X127010000Y-101430000D03*
%TD*%
D27*
%TO.C,U4*%
X241960000Y-100267500D03*
X241010000Y-100267500D03*
X240060000Y-100267500D03*
X240060000Y-97992500D03*
X241010000Y-97992500D03*
X241960000Y-97992500D03*
%TD*%
D13*
%TO.C,Q8*%
X224412500Y-100950000D03*
X224412500Y-99050000D03*
X226287500Y-100000000D03*
%TD*%
D14*
%TO.C,Col8*%
X229070000Y-105640000D03*
%TD*%
D13*
%TO.C,Q2*%
X110112500Y-100950000D03*
X110112500Y-99050000D03*
X111987500Y-100000000D03*
%TD*%
D28*
%TO.C,F1*%
X244750000Y-97902500D03*
X244750000Y-102177500D03*
%TD*%
D16*
%TO.C,D1*%
X243200000Y-106840000D03*
X239900000Y-106840000D03*
%TD*%
D13*
%TO.C,Q13*%
X321662500Y-106450000D03*
X321662500Y-104550000D03*
X323537500Y-105500000D03*
%TD*%
%TO.C,Q4*%
X150212500Y-106450000D03*
X150212500Y-104550000D03*
X152087500Y-105500000D03*
%TD*%
D16*
%TO.C,D3*%
X244525000Y-151860000D03*
X241225000Y-151860000D03*
%TD*%
D29*
%TO.C,U3*%
X243530000Y-110937500D03*
X241630000Y-110937500D03*
X242580000Y-109062500D03*
%TD*%
D30*
%TO.C,U1*%
X245675000Y-132900000D03*
X244875000Y-132900000D03*
X244075000Y-132900000D03*
X243275000Y-132900000D03*
X242475000Y-132900000D03*
X241675000Y-132900000D03*
X240875000Y-132900000D03*
X240075000Y-132900000D03*
D31*
X238550000Y-131375000D03*
X238550000Y-130575000D03*
X238550000Y-129775000D03*
X238550000Y-128975000D03*
X238550000Y-128175000D03*
X238550000Y-127375000D03*
X238550000Y-126575000D03*
X238550000Y-125775000D03*
D30*
X240075000Y-124250000D03*
X240875000Y-124250000D03*
X241675000Y-124250000D03*
X242475000Y-124250000D03*
X243275000Y-124250000D03*
X244075000Y-124250000D03*
X244875000Y-124250000D03*
X245675000Y-124250000D03*
D31*
X247200000Y-125775000D03*
X247200000Y-126575000D03*
X247200000Y-127375000D03*
X247200000Y-128175000D03*
X247200000Y-128975000D03*
X247200000Y-129775000D03*
X247200000Y-130575000D03*
X247200000Y-131375000D03*
%TD*%
D32*
%TO.C,3V3*%
X240090000Y-112650000D03*
%TD*%
D16*
%TO.C,D5*%
X189670000Y-101590000D03*
X186370000Y-101590000D03*
%TD*%
M02*
