M48
; DRILL file {KiCad (6.0.0)} date Sat Mar  5 10:25:11 2022
; FORMAT={-:-/ absolute / inch / decimal}
; #@! TF.CreationDate,2022-03-05T10:25:11+10:00
; #@! TF.GenerationSoftware,Kicad,Pcbnew,(6.0.0)
; #@! TF.FileFunction,Plated,1,2,PTH
FMAT,2
INCH
; #@! TA.AperFunction,Plated,PTH,ComponentDrill
T1C0.0118
; #@! TA.AperFunction,Plated,PTH,ViaDrill
T2C0.0157
; #@! TA.AperFunction,Plated,PTH,ComponentDrill
T3C0.0157
; #@! TA.AperFunction,Plated,PTH,ComponentDrill
T4C0.0236
; #@! TA.AperFunction,Plated,PTH,ComponentDrill
T5C0.0256
; #@! TA.AperFunction,Plated,PTH,ComponentDrill
T6C0.0591
; #@! TA.AperFunction,Plated,PTH,ComponentDrill
T7C0.1299
; #@! TA.AperFunction,Plated,PTH,ComponentDrill
T8C0.2441
%
G90
G05
T1
X11.0069Y-5.0069
X11.0069Y-5.0344
X11.0069Y-5.062
X11.0069Y-5.0896
X11.0069Y-5.1171
X11.0344Y-5.0069
X11.0344Y-5.0344
X11.0344Y-5.062
X11.0344Y-5.0896
X11.0344Y-5.1171
X11.062Y-5.0069
X11.062Y-5.0344
X11.062Y-5.062
X11.062Y-5.0896
X11.062Y-5.1171
X11.0896Y-5.0069
X11.0896Y-5.0344
X11.0896Y-5.062
X11.0896Y-5.0896
X11.0896Y-5.1171
X11.1171Y-5.0069
X11.1171Y-5.0344
X11.1171Y-5.062
X11.1171Y-5.0896
X11.1171Y-5.1171
T2
X3.7232Y-4.0535
X3.8386Y-7.1402
X4.028Y-5.0622
X4.1091Y-5.3012
X4.1142Y-4.5142
X4.1276Y-3.7831
X4.4256Y-6.7642
X4.4642Y-4.0496
X4.5224Y-3.7528
X4.5252Y-3.7992
X4.7764Y-7.1402
X4.7783Y-5.0622
X5.0583Y-6.3906
X5.0614Y-6.726
X5.1476Y-5.7331
X5.1504Y-5.8118
X5.1528Y-5.8906
X5.2224Y-4.0496
X5.2445Y-5.2638
X5.2445Y-5.9476
X5.3024Y-6.8087
X5.3417Y-6.7433
X5.4488Y-6.7311
X5.528Y-5.0622
X5.7138Y-7.1402
X5.9035Y-5.5157
X5.9039Y-5.437
X5.9197Y-6.7594
X5.9516Y-6.8744
X5.9531Y-5.4067
X5.972Y-4.0476
X6.2776Y-5.0622
X6.3839Y-4.4815
X6.4091Y-4.5142
X6.4795Y-4.7756
X6.5697Y-4.4815
X6.6016Y-4.7756
X6.6201Y-4.5323
X6.7161Y-4.0465
X6.9323Y-7.1402
X7.0551Y-5.1087
X7.3012Y-6.3902
X7.3677Y-6.5972
X7.4063Y-5.8118
X7.4067Y-5.7335
X7.4087Y-5.8909
X7.4177Y-6.5646
X7.4697Y-4.052
X7.5504Y-6.6819
X7.5709Y-6.6437
X7.7992Y-5.1087
X7.885Y-3.7839
X7.9055Y-6.3236
X7.9343Y-6.0417
X7.9508Y-3.8181
X7.9614Y-6.3362
X7.9618Y-4.4858
X7.9894Y-6.0925
X8.0067Y-4.5327
X8.022Y-6.3724
X8.0453Y-5.2287
X8.052Y-6.1035
X8.072Y-5.263
X8.0815Y-5.9598
X8.0815Y-6.1366
X8.2055Y-5.1087
X8.2213Y-4.048
X8.2323Y-6.3902
X8.4327Y-7.1402
X8.55Y-5.1087
X8.622Y-6.0138
X8.6425Y-5.2807
X8.6665Y-3.852
X8.6713Y-6.5248
X8.6728Y-5.3082
X8.6909Y-4.7756
X8.7976Y-6.3902
X8.9303Y-3.9961
X8.9618Y-6.7945
X8.9622Y-6.8354
X9.0764Y-5.1087
X9.137Y-6.6886
X9.3823Y-3.7394
X9.4102Y-4.9122
X9.4299Y-6.2756
X9.4425Y-4.5165
X9.4441Y-6.187
X9.4516Y-4.9831
X9.452Y-4.9429
X9.4583Y-4.687
X9.4587Y-6.5374
X9.461Y-3.7075
X9.4976Y-3.7405
X9.513Y-4.4228
X9.5323Y-4.0547
X9.5461Y-5.322
X9.5622Y-3.7606
X9.5709Y-4.9555
X9.5748Y-5.0031
X9.5752Y-5.0461
X9.578Y-5.2874
X9.5894Y-4.2937
X9.5929Y-5.3252
X9.613Y-4.9543
X9.6161Y-5.0488
X9.6177Y-5.0028
X9.6335Y-4.3677
X9.6524Y-5.1744
X9.663Y-3.7071
X9.6756Y-3.7945
X9.6764Y-5.9969
X9.7319Y-5.2937
X9.7406Y-5.2126
X9.7437Y-3.7366
X9.7516Y-4.5264
X9.7591Y-5.7394
X9.7646Y-5.8846
X9.7646Y-6.1496
X9.8094Y-5.3094
X9.9323Y-7.1402
X9.9488Y-6.5303
X9.976Y-6.648
X10.0492Y-6.6126
X10.0528Y-6.5709
X10.1071Y-6.6709
X10.1181Y-5.2642
X10.1232Y-6.0228
X10.1579Y-4.8114
X10.1642Y-6.0969
X10.1709Y-5.0146
X10.1724Y-6.6374
X10.1795Y-5.3205
X10.1807Y-5.2701
X10.1862Y-4.7787
X10.2024Y-5.0465
X10.2307Y-4.7744
X10.2335Y-5.078
X10.2429Y-5.1453
X10.25Y-4.1374
X10.2665Y-5.1094
X10.2843Y-4.1654
X10.2854Y-4.2094
X10.2949Y-5.1642
X10.2972Y-4.4551
X10.2992Y-6.3902
X10.3Y-4.2937
X10.3496Y-5.2976
X10.3638Y-4.5083
X10.3819Y-4.8724
X10.4346Y-6.6028
X10.4768Y-5.0252
X10.4776Y-3.8622
X10.4937Y-5.1012
X10.502Y-4.226
X10.515Y-4.3551
X10.5158Y-4.4051
X10.5165Y-3.8791
X10.5547Y-5.224
X10.5571Y-6.6421
X10.8366Y-4.9752
X10.9016Y-5.1173
X10.9102Y-5.4606
X10.9181Y-6.0311
X10.9469Y-4.7248
X11.0083Y-5.9752
X11.0331Y-5.6488
X11.0579Y-7.1402
X11.1047Y-6.8425
X11.1346Y-6.8126
X11.1429Y-6.5524
X11.176Y-6.5799
X11.213Y-4.5256
X11.2295Y-3.9811
X11.2484Y-5.0701
X11.5402Y-5.0815
X11.6386Y-3.7949
X11.6575Y-4.7634
X11.6598Y-6.0421
X11.6898Y-4.7866
X11.7035Y-6.0433
X11.728Y-4.8035
X11.7547Y-6.0547
X11.7559Y-4.9339
X11.7835Y-4.9917
X11.8024Y-6.0567
X11.8075Y-7.1406
X11.8118Y-4.926
X11.8189Y-6.6874
X11.8311Y-4.5094
X11.8394Y-4.9744
X11.8425Y-6.3087
X11.8508Y-6.7421
X11.8669Y-5.0185
X11.8768Y-6.8476
X11.8803Y-4.5374
X11.8949Y-5.1319
X11.9142Y-4.4756
X11.9571Y-3.974
X11.9854Y-3.9295
X11.9992Y-4.2343
X12.0354Y-6.7063
X12.0516Y-6.7441
X12.1874Y-6.7921
X12.2638Y-6.7843
X12.2783Y-5.0815
X12.315Y-3.7815
X12.4035Y-5.2252
X12.4083Y-4.7657
X12.4102Y-4.8091
X12.413Y-4.8508
X12.437Y-5.2992
X12.4394Y-6.3575
X12.4429Y-6.3118
X12.472Y-6.7209
X12.4724Y-5.3319
X12.5575Y-7.1402
X12.5685Y-3.9079
X12.7154Y-5.0815
X12.7161Y-4.3374
X12.7504Y-4.2256
X12.7717Y-3.7512
X12.7772Y-3.8028
X13.028Y-5.0815
X13.3079Y-7.1402
X13.4516Y-4.7756
X13.4606Y-4.0256
X13.487Y-6.535
X13.4996Y-3.9378
X13.5343Y-6.5331
X13.778Y-5.0815
T3
X3.7842Y-5.2638
X3.7842Y-6.0138
X3.878Y-3.7638
X3.878Y-4.5138
X3.9377Y-5.4823
X3.9377Y-6.2323
X4.0315Y-3.9823
X4.0315Y-4.7323
X4.1592Y-6.7638
X4.3127Y-6.9823
X4.628Y-3.7638
X4.628Y-4.5138
X4.628Y-5.2638
X4.628Y-6.0138
X4.7815Y-3.9823
X4.7815Y-4.7323
X4.7815Y-5.4823
X4.7815Y-6.2323
X5.0967Y-6.7638
X5.2502Y-6.9823
X5.3189Y-3.7441
X5.3189Y-3.7913
X5.378Y-3.7638
X5.378Y-4.5138
X5.378Y-5.2638
X5.378Y-6.0138
X5.5Y-3.7205
X5.5Y-3.7638
X5.5315Y-3.9823
X5.5315Y-4.7323
X5.5315Y-5.4823
X5.5315Y-6.2323
X6.0342Y-6.7638
X6.128Y-3.7638
X6.128Y-4.5138
X6.128Y-5.2638
X6.128Y-6.0138
X6.1877Y-6.9823
X6.2815Y-3.9823
X6.2815Y-4.7323
X6.2815Y-5.4823
X6.2815Y-6.2323
X6.8189Y-3.7441
X6.8189Y-3.7913
X6.878Y-3.7638
X6.878Y-4.5138
X6.878Y-5.2638
X6.878Y-6.0138
X7.0Y-3.7205
X7.0Y-3.7638
X7.0315Y-3.9823
X7.0315Y-4.7323
X7.0315Y-5.4823
X7.0315Y-6.2323
X7.253Y-6.7638
X7.4065Y-6.9823
X7.628Y-3.7638
X7.628Y-4.5138
X7.628Y-5.2638
X7.628Y-6.0138
X7.7815Y-3.9823
X7.7815Y-4.7323
X7.7815Y-5.4823
X7.7815Y-6.2323
X8.3189Y-3.7441
X8.3189Y-3.7913
X8.378Y-3.7638
X8.378Y-4.5138
X8.378Y-5.2638
X8.378Y-6.0138
X8.5Y-3.7205
X8.5Y-3.7638
X8.5315Y-3.9823
X8.5315Y-4.7323
X8.5315Y-5.4823
X8.5315Y-6.2323
X8.753Y-6.7638
X8.9065Y-6.9823
X9.128Y-3.7638
X9.128Y-4.5138
X9.128Y-5.2638
X9.128Y-6.0138
X9.2815Y-3.9823
X9.2815Y-4.7323
X9.2815Y-5.4823
X9.2815Y-6.2323
X9.878Y-3.7638
X9.878Y-4.5138
X9.878Y-5.2638
X9.878Y-6.0138
X10.0315Y-3.9823
X10.0315Y-4.7323
X10.0315Y-5.4823
X10.0315Y-6.2323
X10.253Y-6.7638
X10.4065Y-6.9823
X10.628Y-3.7638
X10.628Y-4.5138
X10.628Y-5.2638
X10.628Y-6.0138
X10.7815Y-3.9823
X10.7815Y-4.7323
X10.7815Y-5.4823
X10.7815Y-6.2323
X11.3189Y-3.7441
X11.3189Y-3.7913
X11.378Y-3.7638
X11.378Y-4.5138
X11.378Y-5.2638
X11.378Y-6.0138
X11.378Y-6.7638
X11.5Y-3.7205
X11.5Y-3.7638
X11.5315Y-3.9823
X11.5315Y-4.7323
X11.5315Y-5.4823
X11.5315Y-6.2323
X11.5315Y-6.9823
X12.128Y-3.7638
X12.128Y-4.5138
X12.128Y-5.2638
X12.128Y-6.0138
X12.128Y-6.7638
X12.2815Y-3.9823
X12.2815Y-4.7323
X12.2815Y-5.4823
X12.2815Y-6.2323
X12.2815Y-6.9823
X12.878Y-3.7638
X12.878Y-4.5138
X12.878Y-5.2638
X12.878Y-6.0138
X12.878Y-6.7638
X13.0315Y-3.9823
X13.0315Y-4.7323
X13.0315Y-5.4823
X13.0315Y-6.2323
X13.0315Y-6.9823
X13.5689Y-3.7441
X13.5689Y-3.7913
X13.628Y-3.7638
X13.628Y-4.5138
X13.628Y-6.7638
X13.7217Y-5.2638
X13.7217Y-6.0138
X13.75Y-3.7205
X13.75Y-3.7638
X13.7815Y-3.9823
X13.7815Y-4.7323
X13.7815Y-6.9823
X13.8752Y-5.4823
X13.8752Y-6.2323
T5
X9.4482Y-3.5906
X9.6758Y-3.5906
T7
X3.8433Y-5.437
X3.8433Y-6.187
X3.937Y-3.937
X3.937Y-4.687
X4.2183Y-6.937
X4.687Y-3.937
X4.687Y-4.687
X4.687Y-5.437
X4.687Y-6.187
X5.1558Y-6.937
X5.437Y-3.937
X5.437Y-4.687
X5.437Y-5.437
X5.437Y-6.187
X6.0933Y-6.937
X6.187Y-3.937
X6.187Y-4.687
X6.187Y-5.437
X6.187Y-6.187
X6.937Y-3.937
X6.937Y-4.687
X6.937Y-5.437
X6.937Y-6.187
X7.312Y-6.937
X7.687Y-3.937
X7.687Y-4.687
X7.687Y-5.437
X7.687Y-6.187
X8.437Y-3.937
X8.437Y-4.687
X8.437Y-5.437
X8.437Y-6.187
X8.812Y-6.937
X9.187Y-3.937
X9.187Y-4.687
X9.187Y-5.437
X9.187Y-6.187
X9.937Y-3.937
X9.937Y-4.687
X9.937Y-5.437
X9.937Y-6.187
X10.312Y-6.937
X10.687Y-3.937
X10.687Y-4.687
X10.687Y-5.437
X10.687Y-6.187
X11.437Y-3.937
X11.437Y-4.687
X11.437Y-5.437
X11.437Y-6.187
X11.437Y-6.937
X12.187Y-3.937
X12.187Y-4.687
X12.187Y-5.437
X12.187Y-6.187
X12.187Y-6.937
X12.937Y-3.937
X12.937Y-4.687
X12.937Y-5.437
X12.937Y-6.187
X12.937Y-6.937
X13.687Y-3.937
X13.687Y-4.687
X13.687Y-6.937
X13.7808Y-5.437
X13.7808Y-6.187
T8
X4.312Y-4.312
X4.312Y-5.812
X6.562Y-4.312
X6.562Y-5.812
X8.812Y-4.312
X8.812Y-5.812
X11.062Y-4.312
X11.062Y-5.812
X13.312Y-4.312
X13.312Y-5.812
T4
G00X9.3919Y-3.435
M15
G01X9.3919Y-3.4587
M16
G05
G00X9.3919Y-3.5898
M15
G01X9.3919Y-3.6331
M16
G05
G00X9.7321Y-3.435
M15
G01X9.7321Y-3.4587
M16
G05
G00X9.7321Y-3.5898
M15
G01X9.7321Y-3.6331
M16
G05
T6
G00X3.7645Y-5.1614
M15
G01X3.922Y-5.1614
M16
G05
G00X3.7645Y-5.7126
M15
G01X3.922Y-5.7126
M16
G05
G00X3.7645Y-5.9114
M15
G01X3.922Y-5.9114
M16
G05
G00X3.7645Y-6.4626
M15
G01X3.922Y-6.4626
M16
G05
G00X3.8583Y-3.6614
M15
G01X4.0157Y-3.6614
M16
G05
G00X3.8583Y-4.2126
M15
G01X4.0157Y-4.2126
M16
G05
G00X3.8583Y-4.4114
M15
G01X4.0157Y-4.4114
M16
G05
G00X3.8583Y-4.9626
M15
G01X4.0157Y-4.9626
M16
G05
G00X4.1395Y-6.6614
M15
G01X4.297Y-6.6614
M16
G05
G00X4.1395Y-7.2126
M15
G01X4.297Y-7.2126
M16
G05
G00X4.6083Y-3.6614
M15
G01X4.7657Y-3.6614
M16
G05
G00X4.6083Y-4.2126
M15
G01X4.7657Y-4.2126
M16
G05
G00X4.6083Y-4.4114
M15
G01X4.7657Y-4.4114
M16
G05
G00X4.6083Y-4.9626
M15
G01X4.7657Y-4.9626
M16
G05
G00X4.6083Y-5.1614
M15
G01X4.7657Y-5.1614
M16
G05
G00X4.6083Y-5.7126
M15
G01X4.7657Y-5.7126
M16
G05
G00X4.6083Y-5.9114
M15
G01X4.7657Y-5.9114
M16
G05
G00X4.6083Y-6.4626
M15
G01X4.7657Y-6.4626
M16
G05
G00X5.077Y-6.6614
M15
G01X5.2345Y-6.6614
M16
G05
G00X5.077Y-7.2126
M15
G01X5.2345Y-7.2126
M16
G05
G00X5.3583Y-3.6614
M15
G01X5.5157Y-3.6614
M16
G05
G00X5.3583Y-4.2126
M15
G01X5.5157Y-4.2126
M16
G05
G00X5.3583Y-4.4114
M15
G01X5.5157Y-4.4114
M16
G05
G00X5.3583Y-4.9626
M15
G01X5.5157Y-4.9626
M16
G05
G00X5.3583Y-5.1614
M15
G01X5.5157Y-5.1614
M16
G05
G00X5.3583Y-5.7126
M15
G01X5.5157Y-5.7126
M16
G05
G00X5.3583Y-5.9114
M15
G01X5.5157Y-5.9114
M16
G05
G00X5.3583Y-6.4626
M15
G01X5.5157Y-6.4626
M16
G05
G00X6.0145Y-6.6614
M15
G01X6.172Y-6.6614
M16
G05
G00X6.0145Y-7.2126
M15
G01X6.172Y-7.2126
M16
G05
G00X6.1083Y-3.6614
M15
G01X6.2657Y-3.6614
M16
G05
G00X6.1083Y-4.2126
M15
G01X6.2657Y-4.2126
M16
G05
G00X6.1083Y-4.4114
M15
G01X6.2657Y-4.4114
M16
G05
G00X6.1083Y-4.9626
M15
G01X6.2657Y-4.9626
M16
G05
G00X6.1083Y-5.1614
M15
G01X6.2657Y-5.1614
M16
G05
G00X6.1083Y-5.7126
M15
G01X6.2657Y-5.7126
M16
G05
G00X6.1083Y-5.9114
M15
G01X6.2657Y-5.9114
M16
G05
G00X6.1083Y-6.4626
M15
G01X6.2657Y-6.4626
M16
G05
G00X6.8583Y-3.6614
M15
G01X7.0157Y-3.6614
M16
G05
G00X6.8583Y-4.2126
M15
G01X7.0157Y-4.2126
M16
G05
G00X6.8583Y-4.4114
M15
G01X7.0157Y-4.4114
M16
G05
G00X6.8583Y-4.9626
M15
G01X7.0157Y-4.9626
M16
G05
G00X6.8583Y-5.1614
M15
G01X7.0157Y-5.1614
M16
G05
G00X6.8583Y-5.7126
M15
G01X7.0157Y-5.7126
M16
G05
G00X6.8583Y-5.9114
M15
G01X7.0157Y-5.9114
M16
G05
G00X6.8583Y-6.4626
M15
G01X7.0157Y-6.4626
M16
G05
G00X7.2333Y-6.6614
M15
G01X7.3907Y-6.6614
M16
G05
G00X7.2333Y-7.2126
M15
G01X7.3907Y-7.2126
M16
G05
G00X7.6083Y-3.6614
M15
G01X7.7657Y-3.6614
M16
G05
G00X7.6083Y-4.2126
M15
G01X7.7657Y-4.2126
M16
G05
G00X7.6083Y-4.4114
M15
G01X7.7657Y-4.4114
M16
G05
G00X7.6083Y-4.9626
M15
G01X7.7657Y-4.9626
M16
G05
G00X7.6083Y-5.1614
M15
G01X7.7657Y-5.1614
M16
G05
G00X7.6083Y-5.7126
M15
G01X7.7657Y-5.7126
M16
G05
G00X7.6083Y-5.9114
M15
G01X7.7657Y-5.9114
M16
G05
G00X7.6083Y-6.4626
M15
G01X7.7657Y-6.4626
M16
G05
G00X8.3583Y-3.6614
M15
G01X8.5157Y-3.6614
M16
G05
G00X8.3583Y-4.2126
M15
G01X8.5157Y-4.2126
M16
G05
G00X8.3583Y-4.4114
M15
G01X8.5157Y-4.4114
M16
G05
G00X8.3583Y-4.9626
M15
G01X8.5157Y-4.9626
M16
G05
G00X8.3583Y-5.1614
M15
G01X8.5157Y-5.1614
M16
G05
G00X8.3583Y-5.7126
M15
G01X8.5157Y-5.7126
M16
G05
G00X8.3583Y-5.9114
M15
G01X8.5157Y-5.9114
M16
G05
G00X8.3583Y-6.4626
M15
G01X8.5157Y-6.4626
M16
G05
G00X8.7333Y-6.6614
M15
G01X8.8907Y-6.6614
M16
G05
G00X8.7333Y-7.2126
M15
G01X8.8907Y-7.2126
M16
G05
G00X9.1083Y-3.6614
M15
G01X9.2657Y-3.6614
M16
G05
G00X9.1083Y-4.2126
M15
G01X9.2657Y-4.2126
M16
G05
G00X9.1083Y-4.4114
M15
G01X9.2657Y-4.4114
M16
G05
G00X9.1083Y-4.9626
M15
G01X9.2657Y-4.9626
M16
G05
G00X9.1083Y-5.1614
M15
G01X9.2657Y-5.1614
M16
G05
G00X9.1083Y-5.7126
M15
G01X9.2657Y-5.7126
M16
G05
G00X9.1083Y-5.9114
M15
G01X9.2657Y-5.9114
M16
G05
G00X9.1083Y-6.4626
M15
G01X9.2657Y-6.4626
M16
G05
G00X9.8583Y-3.6614
M15
G01X10.0157Y-3.6614
M16
G05
G00X9.8583Y-4.2126
M15
G01X10.0157Y-4.2126
M16
G05
G00X9.8583Y-4.4114
M15
G01X10.0157Y-4.4114
M16
G05
G00X9.8583Y-4.9626
M15
G01X10.0157Y-4.9626
M16
G05
G00X9.8583Y-5.1614
M15
G01X10.0157Y-5.1614
M16
G05
G00X9.8583Y-5.7126
M15
G01X10.0157Y-5.7126
M16
G05
G00X9.8583Y-5.9114
M15
G01X10.0157Y-5.9114
M16
G05
G00X9.8583Y-6.4626
M15
G01X10.0157Y-6.4626
M16
G05
G00X10.2333Y-6.6614
M15
G01X10.3907Y-6.6614
M16
G05
G00X10.2333Y-7.2126
M15
G01X10.3907Y-7.2126
M16
G05
G00X10.6083Y-3.6614
M15
G01X10.7657Y-3.6614
M16
G05
G00X10.6083Y-4.2126
M15
G01X10.7657Y-4.2126
M16
G05
G00X10.6083Y-4.4114
M15
G01X10.7657Y-4.4114
M16
G05
G00X10.6083Y-4.9626
M15
G01X10.7657Y-4.9626
M16
G05
G00X10.6083Y-5.1614
M15
G01X10.7657Y-5.1614
M16
G05
G00X10.6083Y-5.7126
M15
G01X10.7657Y-5.7126
M16
G05
G00X10.6083Y-5.9114
M15
G01X10.7657Y-5.9114
M16
G05
G00X10.6083Y-6.4626
M15
G01X10.7657Y-6.4626
M16
G05
G00X11.3583Y-3.6614
M15
G01X11.5157Y-3.6614
M16
G05
G00X11.3583Y-4.2126
M15
G01X11.5157Y-4.2126
M16
G05
G00X11.3583Y-4.4114
M15
G01X11.5157Y-4.4114
M16
G05
G00X11.3583Y-4.9626
M15
G01X11.5157Y-4.9626
M16
G05
G00X11.3583Y-5.1614
M15
G01X11.5157Y-5.1614
M16
G05
G00X11.3583Y-5.7126
M15
G01X11.5157Y-5.7126
M16
G05
G00X11.3583Y-5.9114
M15
G01X11.5157Y-5.9114
M16
G05
G00X11.3583Y-6.4626
M15
G01X11.5157Y-6.4626
M16
G05
G00X11.3583Y-6.6614
M15
G01X11.5157Y-6.6614
M16
G05
G00X11.3583Y-7.2126
M15
G01X11.5157Y-7.2126
M16
G05
G00X12.1083Y-3.6614
M15
G01X12.2657Y-3.6614
M16
G05
G00X12.1083Y-4.2126
M15
G01X12.2657Y-4.2126
M16
G05
G00X12.1083Y-4.4114
M15
G01X12.2657Y-4.4114
M16
G05
G00X12.1083Y-4.9626
M15
G01X12.2657Y-4.9626
M16
G05
G00X12.1083Y-5.1614
M15
G01X12.2657Y-5.1614
M16
G05
G00X12.1083Y-5.7126
M15
G01X12.2657Y-5.7126
M16
G05
G00X12.1083Y-5.9114
M15
G01X12.2657Y-5.9114
M16
G05
G00X12.1083Y-6.4626
M15
G01X12.2657Y-6.4626
M16
G05
G00X12.1083Y-6.6614
M15
G01X12.2657Y-6.6614
M16
G05
G00X12.1083Y-7.2126
M15
G01X12.2657Y-7.2126
M16
G05
G00X12.8583Y-3.6614
M15
G01X13.0157Y-3.6614
M16
G05
G00X12.8583Y-4.2126
M15
G01X13.0157Y-4.2126
M16
G05
G00X12.8583Y-4.4114
M15
G01X13.0157Y-4.4114
M16
G05
G00X12.8583Y-4.9626
M15
G01X13.0157Y-4.9626
M16
G05
G00X12.8583Y-5.1614
M15
G01X13.0157Y-5.1614
M16
G05
G00X12.8583Y-5.7126
M15
G01X13.0157Y-5.7126
M16
G05
G00X12.8583Y-5.9114
M15
G01X13.0157Y-5.9114
M16
G05
G00X12.8583Y-6.4626
M15
G01X13.0157Y-6.4626
M16
G05
G00X12.8583Y-6.6614
M15
G01X13.0157Y-6.6614
M16
G05
G00X12.8583Y-7.2126
M15
G01X13.0157Y-7.2126
M16
G05
G00X13.6083Y-3.6614
M15
G01X13.7657Y-3.6614
M16
G05
G00X13.6083Y-4.2126
M15
G01X13.7657Y-4.2126
M16
G05
G00X13.6083Y-4.4114
M15
G01X13.7657Y-4.4114
M16
G05
G00X13.6083Y-4.9626
M15
G01X13.7657Y-4.9626
M16
G05
G00X13.6083Y-6.6614
M15
G01X13.7657Y-6.6614
M16
G05
G00X13.6083Y-7.2126
M15
G01X13.7657Y-7.2126
M16
G05
G00X13.702Y-5.1614
M15
G01X13.8595Y-5.1614
M16
G05
G00X13.702Y-5.7126
M15
G01X13.8595Y-5.7126
M16
G05
G00X13.702Y-5.9114
M15
G01X13.8595Y-5.9114
M16
G05
G00X13.702Y-6.4626
M15
G01X13.8595Y-6.4626
M16
G05
T0
M30
