%TF.GenerationSoftware,KiCad,Pcbnew,(6.0.0)*%
%TF.CreationDate,2022-03-05T10:25:11+10:00*%
%TF.ProjectId,Ortho66_Optical,4f727468-6f36-4365-9f4f-70746963616c,rev?*%
%TF.SameCoordinates,Original*%
%TF.FileFunction,Profile,NP*%
%FSLAX46Y46*%
G04 Gerber Fmt 4.6, Leading zero omitted, Abs format (unit mm)*
G04 Created by KiCad (PCBNEW (6.0.0)) date 2022-03-05 10:25:11*
%MOMM*%
%LPD*%
G01*
G04 APERTURE LIST*
%TA.AperFunction,Profile*%
%ADD10C,0.080000*%
%TD*%
G04 APERTURE END LIST*
D10*
X353175000Y-90475000D02*
X249625000Y-90475000D01*
X95237500Y-167175000D02*
G75*
G03*
X94737500Y-166675000I-500001J-1D01*
G01*
X248625000Y-86675000D02*
X248625000Y-89475000D01*
X248625000Y-86675000D02*
G75*
G03*
X248125000Y-86175000I-500001J-1D01*
G01*
X353175000Y-185725000D02*
G75*
G03*
X357175000Y-181725000I0J4000000D01*
G01*
X236125000Y-90475000D02*
X94475000Y-90475000D01*
X236125000Y-90475000D02*
G75*
G03*
X237125000Y-89475000I-3J1000003D01*
G01*
X357175000Y-94475000D02*
G75*
G03*
X353175000Y-90475000I-4000000J0D01*
G01*
X357175000Y-181725000D02*
X357175000Y-94475000D01*
X95237500Y-181725000D02*
X95237500Y-167175000D01*
X248125000Y-86175000D02*
X237625000Y-86175000D01*
X237625000Y-86175000D02*
G75*
G03*
X237125000Y-86675000I1J-500001D01*
G01*
X95237500Y-181725000D02*
G75*
G03*
X99237500Y-185725000I4000000J0D01*
G01*
X94475000Y-90475000D02*
G75*
G03*
X90475000Y-94475000I0J-4000000D01*
G01*
X90475000Y-162675000D02*
G75*
G03*
X94475000Y-166675000I4000000J0D01*
G01*
X90475000Y-94475000D02*
X90475000Y-162675000D01*
X94737500Y-166675000D02*
X94475000Y-166675000D01*
X237125000Y-86675000D02*
X237125000Y-89475000D01*
X99237500Y-185725000D02*
X353175000Y-185725000D01*
X248625000Y-89475000D02*
G75*
G03*
X249625000Y-90475000I1000003J3D01*
G01*
M02*
